%TF.GenerationSoftware,KiCad,Pcbnew,7.0.1*%
%TF.CreationDate,2025-08-08T09:31:10+07:00*%
%TF.ProjectId,Isolated-Serial-PCB,49736f6c-6174-4656-942d-53657269616c,rev?*%
%TF.SameCoordinates,Original*%
%TF.FileFunction,Drillmap*%
%TF.FilePolarity,Positive*%
%FSLAX45Y45*%
G04 Gerber Fmt 4.5, Leading zero omitted, Abs format (unit mm)*
G04 Created by KiCad (PCBNEW 7.0.1) date 2025-08-08 09:31:10*
%MOMM*%
%LPD*%
G01*
G04 APERTURE LIST*
%ADD10C,0.100000*%
%ADD11C,0.200000*%
%ADD12C,0.040000*%
%ADD13C,0.050000*%
%ADD14C,0.077000*%
%ADD15C,0.080000*%
%ADD16C,0.130000*%
%ADD17C,0.320000*%
G04 APERTURE END LIST*
D10*
X12369800Y-7653400D02*
X17195800Y-7653400D01*
X17195800Y-11463400D02*
X12369800Y-11463400D01*
X17576800Y-8034400D02*
G75*
G03*
X17195800Y-7653400I-381000J0D01*
G01*
X11988800Y-11082400D02*
X11988800Y-8034400D01*
X12369800Y-7653400D02*
G75*
G03*
X11988800Y-8034400I0J-381000D01*
G01*
X11988800Y-11082400D02*
G75*
G03*
X12369800Y-11463400I381000J0D01*
G01*
X17195800Y-11463400D02*
G75*
G03*
X17576800Y-11082400I0J381000D01*
G01*
X17576800Y-8034400D02*
X17576800Y-11082400D01*
D11*
D12*
X12984800Y-8006400D02*
X13024800Y-8046400D01*
X13024800Y-8006400D02*
X12984800Y-8046400D01*
X12984800Y-8108000D02*
X13024800Y-8148000D01*
X13024800Y-8108000D02*
X12984800Y-8148000D01*
X12984800Y-8209600D02*
X13024800Y-8249600D01*
X13024800Y-8209600D02*
X12984800Y-8249600D01*
X13086400Y-8006400D02*
X13126400Y-8046400D01*
X13126400Y-8006400D02*
X13086400Y-8046400D01*
X13086400Y-8108000D02*
X13126400Y-8148000D01*
X13126400Y-8108000D02*
X13086400Y-8148000D01*
X13086400Y-8209600D02*
X13126400Y-8249600D01*
X13126400Y-8209600D02*
X13086400Y-8249600D01*
X13086400Y-10749600D02*
X13126400Y-10789600D01*
X13126400Y-10749600D02*
X13086400Y-10789600D01*
X13086400Y-10851200D02*
X13126400Y-10891200D01*
X13126400Y-10851200D02*
X13086400Y-10891200D01*
X13086400Y-10952800D02*
X13126400Y-10992800D01*
X13126400Y-10952800D02*
X13086400Y-10992800D01*
X13188000Y-8006400D02*
X13228000Y-8046400D01*
X13228000Y-8006400D02*
X13188000Y-8046400D01*
X13188000Y-8108000D02*
X13228000Y-8148000D01*
X13228000Y-8108000D02*
X13188000Y-8148000D01*
X13188000Y-8209600D02*
X13228000Y-8249600D01*
X13228000Y-8209600D02*
X13188000Y-8249600D01*
X13188000Y-10749600D02*
X13228000Y-10789600D01*
X13228000Y-10749600D02*
X13188000Y-10789600D01*
X13188000Y-10851200D02*
X13228000Y-10891200D01*
X13228000Y-10851200D02*
X13188000Y-10891200D01*
X13188000Y-10952800D02*
X13228000Y-10992800D01*
X13228000Y-10952800D02*
X13188000Y-10992800D01*
X13289600Y-10749600D02*
X13329600Y-10789600D01*
X13329600Y-10749600D02*
X13289600Y-10789600D01*
X13289600Y-10851200D02*
X13329600Y-10891200D01*
X13329600Y-10851200D02*
X13289600Y-10891200D01*
X13289600Y-10952800D02*
X13329600Y-10992800D01*
X13329600Y-10952800D02*
X13289600Y-10992800D01*
X13340400Y-8793800D02*
X13380400Y-8833800D01*
X13380400Y-8793800D02*
X13340400Y-8833800D01*
X13492800Y-9276400D02*
X13532800Y-9316400D01*
X13532800Y-9276400D02*
X13492800Y-9316400D01*
X13772200Y-10038400D02*
X13812200Y-10078400D01*
X13812200Y-10038400D02*
X13772200Y-10078400D01*
X15169200Y-8006400D02*
X15209200Y-8046400D01*
X15209200Y-8006400D02*
X15169200Y-8046400D01*
X15194600Y-8768400D02*
X15234600Y-8808400D01*
X15234600Y-8768400D02*
X15194600Y-8808400D01*
X15804200Y-8565200D02*
X15844200Y-8605200D01*
X15844200Y-8565200D02*
X15804200Y-8605200D01*
X15905800Y-10724200D02*
X15945800Y-10764200D01*
X15945800Y-10724200D02*
X15905800Y-10764200D01*
X15905800Y-10825800D02*
X15945800Y-10865800D01*
X15945800Y-10825800D02*
X15905800Y-10865800D01*
X15905800Y-10927400D02*
X15945800Y-10967400D01*
X15945800Y-10927400D02*
X15905800Y-10967400D01*
X16007380Y-10927340D02*
X16047380Y-10967340D01*
X16047380Y-10927340D02*
X16007380Y-10967340D01*
X16007400Y-8920800D02*
X16047400Y-8960800D01*
X16047400Y-8920800D02*
X16007400Y-8960800D01*
X16007400Y-10724200D02*
X16047400Y-10764200D01*
X16047400Y-10724200D02*
X16007400Y-10764200D01*
X16007400Y-10825800D02*
X16047400Y-10865800D01*
X16047400Y-10825800D02*
X16007400Y-10865800D01*
X16058200Y-7981000D02*
X16098200Y-8021000D01*
X16098200Y-7981000D02*
X16058200Y-8021000D01*
X16109000Y-10724200D02*
X16149000Y-10764200D01*
X16149000Y-10724200D02*
X16109000Y-10764200D01*
X16109000Y-10825800D02*
X16149000Y-10865800D01*
X16149000Y-10825800D02*
X16109000Y-10865800D01*
X16109000Y-10927400D02*
X16149000Y-10967400D01*
X16149000Y-10927400D02*
X16109000Y-10967400D01*
X16464600Y-8006400D02*
X16504600Y-8046400D01*
X16504600Y-8006400D02*
X16464600Y-8046400D01*
X16464600Y-8108000D02*
X16504600Y-8148000D01*
X16504600Y-8108000D02*
X16464600Y-8148000D01*
X16464600Y-8209600D02*
X16504600Y-8249600D01*
X16504600Y-8209600D02*
X16464600Y-8249600D01*
X16566180Y-8209539D02*
X16606180Y-8249539D01*
X16606180Y-8209539D02*
X16566180Y-8249539D01*
X16566200Y-8006400D02*
X16606200Y-8046400D01*
X16606200Y-8006400D02*
X16566200Y-8046400D01*
X16566200Y-8108000D02*
X16606200Y-8148000D01*
X16606200Y-8108000D02*
X16566200Y-8148000D01*
X16566200Y-8793800D02*
X16606200Y-8833800D01*
X16606200Y-8793800D02*
X16566200Y-8833800D01*
X16667800Y-8006400D02*
X16707800Y-8046400D01*
X16707800Y-8006400D02*
X16667800Y-8046400D01*
X16667800Y-8108000D02*
X16707800Y-8148000D01*
X16707800Y-8108000D02*
X16667800Y-8148000D01*
X16667800Y-8209600D02*
X16707800Y-8249600D01*
X16707800Y-8209600D02*
X16667800Y-8249600D01*
D13*
X12154800Y-8034400D02*
G75*
G03*
X12154800Y-8034400I-25000J0D01*
G01*
X12154800Y-11082400D02*
G75*
G03*
X12154800Y-11082400I-25000J0D01*
G01*
X12225094Y-7864694D02*
G75*
G03*
X12225094Y-7864694I-25000J0D01*
G01*
X12225094Y-8204106D02*
G75*
G03*
X12225094Y-8204106I-25000J0D01*
G01*
X12225094Y-10912694D02*
G75*
G03*
X12225094Y-10912694I-25000J0D01*
G01*
X12225094Y-11252106D02*
G75*
G03*
X12225094Y-11252106I-25000J0D01*
G01*
X12394800Y-7794400D02*
G75*
G03*
X12394800Y-7794400I-25000J0D01*
G01*
X12394800Y-8274400D02*
G75*
G03*
X12394800Y-8274400I-25000J0D01*
G01*
X12394800Y-10842400D02*
G75*
G03*
X12394800Y-10842400I-25000J0D01*
G01*
X12394800Y-11322400D02*
G75*
G03*
X12394800Y-11322400I-25000J0D01*
G01*
X12564506Y-7864694D02*
G75*
G03*
X12564506Y-7864694I-25000J0D01*
G01*
X12564506Y-8204106D02*
G75*
G03*
X12564506Y-8204106I-25000J0D01*
G01*
X12564506Y-10912694D02*
G75*
G03*
X12564506Y-10912694I-25000J0D01*
G01*
X12564506Y-11252106D02*
G75*
G03*
X12564506Y-11252106I-25000J0D01*
G01*
X12634800Y-8034400D02*
G75*
G03*
X12634800Y-8034400I-25000J0D01*
G01*
X12634800Y-11082400D02*
G75*
G03*
X12634800Y-11082400I-25000J0D01*
G01*
X16980800Y-8034400D02*
G75*
G03*
X16980800Y-8034400I-25000J0D01*
G01*
X16980800Y-11082400D02*
G75*
G03*
X16980800Y-11082400I-25000J0D01*
G01*
X17051094Y-7864694D02*
G75*
G03*
X17051094Y-7864694I-25000J0D01*
G01*
X17051094Y-8204106D02*
G75*
G03*
X17051094Y-8204106I-25000J0D01*
G01*
X17051094Y-10912694D02*
G75*
G03*
X17051094Y-10912694I-25000J0D01*
G01*
X17051094Y-11252106D02*
G75*
G03*
X17051094Y-11252106I-25000J0D01*
G01*
X17220800Y-7794400D02*
G75*
G03*
X17220800Y-7794400I-25000J0D01*
G01*
X17220800Y-8274400D02*
G75*
G03*
X17220800Y-8274400I-25000J0D01*
G01*
X17220800Y-10842400D02*
G75*
G03*
X17220800Y-10842400I-25000J0D01*
G01*
X17220800Y-11322400D02*
G75*
G03*
X17220800Y-11322400I-25000J0D01*
G01*
X17390506Y-7864694D02*
G75*
G03*
X17390506Y-7864694I-25000J0D01*
G01*
X17390506Y-8204106D02*
G75*
G03*
X17390506Y-8204106I-25000J0D01*
G01*
X17390506Y-10912694D02*
G75*
G03*
X17390506Y-10912694I-25000J0D01*
G01*
X17390506Y-11252106D02*
G75*
G03*
X17390506Y-11252106I-25000J0D01*
G01*
X17460800Y-8034400D02*
G75*
G03*
X17460800Y-8034400I-25000J0D01*
G01*
X17460800Y-11082400D02*
G75*
G03*
X17460800Y-11082400I-25000J0D01*
G01*
D14*
X14401800Y-8249900D02*
X14401800Y-8326900D01*
X14363300Y-8288400D02*
X14440300Y-8288400D01*
X14655800Y-8249900D02*
X14655800Y-8326900D01*
X14617300Y-8288400D02*
X14694300Y-8288400D01*
X14909800Y-8249900D02*
X14909800Y-8326900D01*
X14871300Y-8288400D02*
X14948300Y-8288400D01*
X15163800Y-8249900D02*
X15163800Y-8326900D01*
X15125300Y-8288400D02*
X15202300Y-8288400D01*
D15*
X15852484Y-8189684D02*
X15852484Y-8133115D01*
X15795915Y-8133115D01*
X15795915Y-8189684D01*
X15852484Y-8189684D01*
X15852484Y-9205684D02*
X15852484Y-9149115D01*
X15795915Y-9149115D01*
X15795915Y-9205684D01*
X15852484Y-9205684D01*
D16*
X12623800Y-8861400D02*
X12688800Y-8796400D01*
X12623800Y-8731400D01*
X12558800Y-8796400D01*
X12623800Y-8861400D01*
X12623800Y-9361400D02*
X12688800Y-9296400D01*
X12623800Y-9231400D01*
X12558800Y-9296400D01*
X12623800Y-9361400D01*
X12623800Y-9861400D02*
X12688800Y-9796400D01*
X12623800Y-9731400D01*
X12558800Y-9796400D01*
X12623800Y-9861400D01*
X12623800Y-10361400D02*
X12688800Y-10296400D01*
X12623800Y-10231400D01*
X12558800Y-10296400D01*
X12623800Y-10361400D01*
X16941800Y-8877400D02*
X17006800Y-8812400D01*
X16941800Y-8747400D01*
X16876800Y-8812400D01*
X16941800Y-8877400D01*
X16941800Y-9377400D02*
X17006800Y-9312400D01*
X16941800Y-9247400D01*
X16876800Y-9312400D01*
X16941800Y-9377400D01*
X16941800Y-9877400D02*
X17006800Y-9812400D01*
X16941800Y-9747400D01*
X16876800Y-9812400D01*
X16941800Y-9877400D01*
X16941800Y-10377400D02*
X17006800Y-10312400D01*
X16941800Y-10247400D01*
X16876800Y-10312400D01*
X16941800Y-10377400D01*
D17*
X12209800Y-7874400D02*
X12529800Y-8194400D01*
X12529800Y-7874400D02*
X12209800Y-8194400D01*
X12529800Y-8034400D02*
G75*
G03*
X12529800Y-8034400I-160000J0D01*
G01*
X12209800Y-10922400D02*
X12529800Y-11242400D01*
X12529800Y-10922400D02*
X12209800Y-11242400D01*
X12529800Y-11082400D02*
G75*
G03*
X12529800Y-11082400I-160000J0D01*
G01*
X17035800Y-7874400D02*
X17355800Y-8194400D01*
X17355800Y-7874400D02*
X17035800Y-8194400D01*
X17355800Y-8034400D02*
G75*
G03*
X17355800Y-8034400I-160000J0D01*
G01*
X17035800Y-10922400D02*
X17355800Y-11242400D01*
X17355800Y-10922400D02*
X17035800Y-11242400D01*
X17355800Y-11082400D02*
G75*
G03*
X17355800Y-11082400I-160000J0D01*
G01*
D11*
X12231419Y-11780924D02*
X12231419Y-11580924D01*
X12231419Y-11580924D02*
X12279038Y-11580924D01*
X12279038Y-11580924D02*
X12307609Y-11590448D01*
X12307609Y-11590448D02*
X12326657Y-11609495D01*
X12326657Y-11609495D02*
X12336181Y-11628543D01*
X12336181Y-11628543D02*
X12345705Y-11666638D01*
X12345705Y-11666638D02*
X12345705Y-11695209D01*
X12345705Y-11695209D02*
X12336181Y-11733305D01*
X12336181Y-11733305D02*
X12326657Y-11752352D01*
X12326657Y-11752352D02*
X12307609Y-11771400D01*
X12307609Y-11771400D02*
X12279038Y-11780924D01*
X12279038Y-11780924D02*
X12231419Y-11780924D01*
X12431419Y-11780924D02*
X12431419Y-11647590D01*
X12431419Y-11685686D02*
X12440943Y-11666638D01*
X12440943Y-11666638D02*
X12450467Y-11657114D01*
X12450467Y-11657114D02*
X12469514Y-11647590D01*
X12469514Y-11647590D02*
X12488562Y-11647590D01*
X12555228Y-11780924D02*
X12555228Y-11647590D01*
X12555228Y-11580924D02*
X12545705Y-11590448D01*
X12545705Y-11590448D02*
X12555228Y-11599971D01*
X12555228Y-11599971D02*
X12564752Y-11590448D01*
X12564752Y-11590448D02*
X12555228Y-11580924D01*
X12555228Y-11580924D02*
X12555228Y-11599971D01*
X12679038Y-11780924D02*
X12659990Y-11771400D01*
X12659990Y-11771400D02*
X12650467Y-11752352D01*
X12650467Y-11752352D02*
X12650467Y-11580924D01*
X12783800Y-11780924D02*
X12764752Y-11771400D01*
X12764752Y-11771400D02*
X12755228Y-11752352D01*
X12755228Y-11752352D02*
X12755228Y-11580924D01*
X13012371Y-11780924D02*
X13012371Y-11580924D01*
X13012371Y-11580924D02*
X13079038Y-11723781D01*
X13079038Y-11723781D02*
X13145705Y-11580924D01*
X13145705Y-11580924D02*
X13145705Y-11780924D01*
X13326657Y-11780924D02*
X13326657Y-11676162D01*
X13326657Y-11676162D02*
X13317133Y-11657114D01*
X13317133Y-11657114D02*
X13298086Y-11647590D01*
X13298086Y-11647590D02*
X13259990Y-11647590D01*
X13259990Y-11647590D02*
X13240943Y-11657114D01*
X13326657Y-11771400D02*
X13307609Y-11780924D01*
X13307609Y-11780924D02*
X13259990Y-11780924D01*
X13259990Y-11780924D02*
X13240943Y-11771400D01*
X13240943Y-11771400D02*
X13231419Y-11752352D01*
X13231419Y-11752352D02*
X13231419Y-11733305D01*
X13231419Y-11733305D02*
X13240943Y-11714257D01*
X13240943Y-11714257D02*
X13259990Y-11704733D01*
X13259990Y-11704733D02*
X13307609Y-11704733D01*
X13307609Y-11704733D02*
X13326657Y-11695209D01*
X13421895Y-11647590D02*
X13421895Y-11847590D01*
X13421895Y-11657114D02*
X13440943Y-11647590D01*
X13440943Y-11647590D02*
X13479038Y-11647590D01*
X13479038Y-11647590D02*
X13498086Y-11657114D01*
X13498086Y-11657114D02*
X13507609Y-11666638D01*
X13507609Y-11666638D02*
X13517133Y-11685686D01*
X13517133Y-11685686D02*
X13517133Y-11742828D01*
X13517133Y-11742828D02*
X13507609Y-11761876D01*
X13507609Y-11761876D02*
X13498086Y-11771400D01*
X13498086Y-11771400D02*
X13479038Y-11780924D01*
X13479038Y-11780924D02*
X13440943Y-11780924D01*
X13440943Y-11780924D02*
X13421895Y-11771400D01*
X13602848Y-11761876D02*
X13612371Y-11771400D01*
X13612371Y-11771400D02*
X13602848Y-11780924D01*
X13602848Y-11780924D02*
X13593324Y-11771400D01*
X13593324Y-11771400D02*
X13602848Y-11761876D01*
X13602848Y-11761876D02*
X13602848Y-11780924D01*
X13602848Y-11657114D02*
X13612371Y-11666638D01*
X13612371Y-11666638D02*
X13602848Y-11676162D01*
X13602848Y-11676162D02*
X13593324Y-11666638D01*
X13593324Y-11666638D02*
X13602848Y-11657114D01*
X13602848Y-11657114D02*
X13602848Y-11676162D01*
D12*
X11943800Y-12088400D02*
X11983800Y-12128400D01*
X11983800Y-12088400D02*
X11943800Y-12128400D01*
D11*
X12269514Y-12000924D02*
X12288562Y-12000924D01*
X12288562Y-12000924D02*
X12307609Y-12010448D01*
X12307609Y-12010448D02*
X12317133Y-12019971D01*
X12317133Y-12019971D02*
X12326657Y-12039019D01*
X12326657Y-12039019D02*
X12336181Y-12077114D01*
X12336181Y-12077114D02*
X12336181Y-12124733D01*
X12336181Y-12124733D02*
X12326657Y-12162828D01*
X12326657Y-12162828D02*
X12317133Y-12181876D01*
X12317133Y-12181876D02*
X12307609Y-12191400D01*
X12307609Y-12191400D02*
X12288562Y-12200924D01*
X12288562Y-12200924D02*
X12269514Y-12200924D01*
X12269514Y-12200924D02*
X12250467Y-12191400D01*
X12250467Y-12191400D02*
X12240943Y-12181876D01*
X12240943Y-12181876D02*
X12231419Y-12162828D01*
X12231419Y-12162828D02*
X12221895Y-12124733D01*
X12221895Y-12124733D02*
X12221895Y-12077114D01*
X12221895Y-12077114D02*
X12231419Y-12039019D01*
X12231419Y-12039019D02*
X12240943Y-12019971D01*
X12240943Y-12019971D02*
X12250467Y-12010448D01*
X12250467Y-12010448D02*
X12269514Y-12000924D01*
X12421895Y-12181876D02*
X12431419Y-12191400D01*
X12431419Y-12191400D02*
X12421895Y-12200924D01*
X12421895Y-12200924D02*
X12412371Y-12191400D01*
X12412371Y-12191400D02*
X12421895Y-12181876D01*
X12421895Y-12181876D02*
X12421895Y-12200924D01*
X12602848Y-12067590D02*
X12602848Y-12200924D01*
X12555228Y-11991400D02*
X12507609Y-12134257D01*
X12507609Y-12134257D02*
X12631419Y-12134257D01*
X12745705Y-12000924D02*
X12764752Y-12000924D01*
X12764752Y-12000924D02*
X12783800Y-12010448D01*
X12783800Y-12010448D02*
X12793324Y-12019971D01*
X12793324Y-12019971D02*
X12802848Y-12039019D01*
X12802848Y-12039019D02*
X12812371Y-12077114D01*
X12812371Y-12077114D02*
X12812371Y-12124733D01*
X12812371Y-12124733D02*
X12802848Y-12162828D01*
X12802848Y-12162828D02*
X12793324Y-12181876D01*
X12793324Y-12181876D02*
X12783800Y-12191400D01*
X12783800Y-12191400D02*
X12764752Y-12200924D01*
X12764752Y-12200924D02*
X12745705Y-12200924D01*
X12745705Y-12200924D02*
X12726657Y-12191400D01*
X12726657Y-12191400D02*
X12717133Y-12181876D01*
X12717133Y-12181876D02*
X12707609Y-12162828D01*
X12707609Y-12162828D02*
X12698086Y-12124733D01*
X12698086Y-12124733D02*
X12698086Y-12077114D01*
X12698086Y-12077114D02*
X12707609Y-12039019D01*
X12707609Y-12039019D02*
X12717133Y-12019971D01*
X12717133Y-12019971D02*
X12726657Y-12010448D01*
X12726657Y-12010448D02*
X12745705Y-12000924D01*
X12936181Y-12000924D02*
X12955229Y-12000924D01*
X12955229Y-12000924D02*
X12974276Y-12010448D01*
X12974276Y-12010448D02*
X12983800Y-12019971D01*
X12983800Y-12019971D02*
X12993324Y-12039019D01*
X12993324Y-12039019D02*
X13002848Y-12077114D01*
X13002848Y-12077114D02*
X13002848Y-12124733D01*
X13002848Y-12124733D02*
X12993324Y-12162828D01*
X12993324Y-12162828D02*
X12983800Y-12181876D01*
X12983800Y-12181876D02*
X12974276Y-12191400D01*
X12974276Y-12191400D02*
X12955229Y-12200924D01*
X12955229Y-12200924D02*
X12936181Y-12200924D01*
X12936181Y-12200924D02*
X12917133Y-12191400D01*
X12917133Y-12191400D02*
X12907609Y-12181876D01*
X12907609Y-12181876D02*
X12898086Y-12162828D01*
X12898086Y-12162828D02*
X12888562Y-12124733D01*
X12888562Y-12124733D02*
X12888562Y-12077114D01*
X12888562Y-12077114D02*
X12898086Y-12039019D01*
X12898086Y-12039019D02*
X12907609Y-12019971D01*
X12907609Y-12019971D02*
X12917133Y-12010448D01*
X12917133Y-12010448D02*
X12936181Y-12000924D01*
X13088562Y-12200924D02*
X13088562Y-12067590D01*
X13088562Y-12086638D02*
X13098086Y-12077114D01*
X13098086Y-12077114D02*
X13117133Y-12067590D01*
X13117133Y-12067590D02*
X13145705Y-12067590D01*
X13145705Y-12067590D02*
X13164752Y-12077114D01*
X13164752Y-12077114D02*
X13174276Y-12096162D01*
X13174276Y-12096162D02*
X13174276Y-12200924D01*
X13174276Y-12096162D02*
X13183800Y-12077114D01*
X13183800Y-12077114D02*
X13202848Y-12067590D01*
X13202848Y-12067590D02*
X13231419Y-12067590D01*
X13231419Y-12067590D02*
X13250467Y-12077114D01*
X13250467Y-12077114D02*
X13259990Y-12096162D01*
X13259990Y-12096162D02*
X13259990Y-12200924D01*
X13355229Y-12200924D02*
X13355229Y-12067590D01*
X13355229Y-12086638D02*
X13364752Y-12077114D01*
X13364752Y-12077114D02*
X13383800Y-12067590D01*
X13383800Y-12067590D02*
X13412371Y-12067590D01*
X13412371Y-12067590D02*
X13431419Y-12077114D01*
X13431419Y-12077114D02*
X13440943Y-12096162D01*
X13440943Y-12096162D02*
X13440943Y-12200924D01*
X13440943Y-12096162D02*
X13450467Y-12077114D01*
X13450467Y-12077114D02*
X13469514Y-12067590D01*
X13469514Y-12067590D02*
X13498086Y-12067590D01*
X13498086Y-12067590D02*
X13517133Y-12077114D01*
X13517133Y-12077114D02*
X13526657Y-12096162D01*
X13526657Y-12096162D02*
X13526657Y-12200924D01*
X13917133Y-11991400D02*
X13745705Y-12248543D01*
X14174276Y-12000924D02*
X14193324Y-12000924D01*
X14193324Y-12000924D02*
X14212372Y-12010448D01*
X14212372Y-12010448D02*
X14221895Y-12019971D01*
X14221895Y-12019971D02*
X14231419Y-12039019D01*
X14231419Y-12039019D02*
X14240943Y-12077114D01*
X14240943Y-12077114D02*
X14240943Y-12124733D01*
X14240943Y-12124733D02*
X14231419Y-12162828D01*
X14231419Y-12162828D02*
X14221895Y-12181876D01*
X14221895Y-12181876D02*
X14212372Y-12191400D01*
X14212372Y-12191400D02*
X14193324Y-12200924D01*
X14193324Y-12200924D02*
X14174276Y-12200924D01*
X14174276Y-12200924D02*
X14155229Y-12191400D01*
X14155229Y-12191400D02*
X14145705Y-12181876D01*
X14145705Y-12181876D02*
X14136181Y-12162828D01*
X14136181Y-12162828D02*
X14126657Y-12124733D01*
X14126657Y-12124733D02*
X14126657Y-12077114D01*
X14126657Y-12077114D02*
X14136181Y-12039019D01*
X14136181Y-12039019D02*
X14145705Y-12019971D01*
X14145705Y-12019971D02*
X14155229Y-12010448D01*
X14155229Y-12010448D02*
X14174276Y-12000924D01*
X14326657Y-12181876D02*
X14336181Y-12191400D01*
X14336181Y-12191400D02*
X14326657Y-12200924D01*
X14326657Y-12200924D02*
X14317133Y-12191400D01*
X14317133Y-12191400D02*
X14326657Y-12181876D01*
X14326657Y-12181876D02*
X14326657Y-12200924D01*
X14459991Y-12000924D02*
X14479038Y-12000924D01*
X14479038Y-12000924D02*
X14498086Y-12010448D01*
X14498086Y-12010448D02*
X14507610Y-12019971D01*
X14507610Y-12019971D02*
X14517133Y-12039019D01*
X14517133Y-12039019D02*
X14526657Y-12077114D01*
X14526657Y-12077114D02*
X14526657Y-12124733D01*
X14526657Y-12124733D02*
X14517133Y-12162828D01*
X14517133Y-12162828D02*
X14507610Y-12181876D01*
X14507610Y-12181876D02*
X14498086Y-12191400D01*
X14498086Y-12191400D02*
X14479038Y-12200924D01*
X14479038Y-12200924D02*
X14459991Y-12200924D01*
X14459991Y-12200924D02*
X14440943Y-12191400D01*
X14440943Y-12191400D02*
X14431419Y-12181876D01*
X14431419Y-12181876D02*
X14421895Y-12162828D01*
X14421895Y-12162828D02*
X14412372Y-12124733D01*
X14412372Y-12124733D02*
X14412372Y-12077114D01*
X14412372Y-12077114D02*
X14421895Y-12039019D01*
X14421895Y-12039019D02*
X14431419Y-12019971D01*
X14431419Y-12019971D02*
X14440943Y-12010448D01*
X14440943Y-12010448D02*
X14459991Y-12000924D01*
X14717133Y-12200924D02*
X14602848Y-12200924D01*
X14659991Y-12200924D02*
X14659991Y-12000924D01*
X14659991Y-12000924D02*
X14640943Y-12029495D01*
X14640943Y-12029495D02*
X14621895Y-12048543D01*
X14621895Y-12048543D02*
X14602848Y-12058067D01*
X14898086Y-12000924D02*
X14802848Y-12000924D01*
X14802848Y-12000924D02*
X14793324Y-12096162D01*
X14793324Y-12096162D02*
X14802848Y-12086638D01*
X14802848Y-12086638D02*
X14821895Y-12077114D01*
X14821895Y-12077114D02*
X14869514Y-12077114D01*
X14869514Y-12077114D02*
X14888562Y-12086638D01*
X14888562Y-12086638D02*
X14898086Y-12096162D01*
X14898086Y-12096162D02*
X14907610Y-12115209D01*
X14907610Y-12115209D02*
X14907610Y-12162828D01*
X14907610Y-12162828D02*
X14898086Y-12181876D01*
X14898086Y-12181876D02*
X14888562Y-12191400D01*
X14888562Y-12191400D02*
X14869514Y-12200924D01*
X14869514Y-12200924D02*
X14821895Y-12200924D01*
X14821895Y-12200924D02*
X14802848Y-12191400D01*
X14802848Y-12191400D02*
X14793324Y-12181876D01*
X14974276Y-12000924D02*
X15107610Y-12000924D01*
X15107610Y-12000924D02*
X15021895Y-12200924D01*
X15174276Y-12000924D02*
X15174276Y-12039019D01*
X15250467Y-12000924D02*
X15250467Y-12039019D01*
X15545705Y-12277114D02*
X15536181Y-12267590D01*
X15536181Y-12267590D02*
X15517134Y-12239019D01*
X15517134Y-12239019D02*
X15507610Y-12219971D01*
X15507610Y-12219971D02*
X15498086Y-12191400D01*
X15498086Y-12191400D02*
X15488562Y-12143781D01*
X15488562Y-12143781D02*
X15488562Y-12105686D01*
X15488562Y-12105686D02*
X15498086Y-12058067D01*
X15498086Y-12058067D02*
X15507610Y-12029495D01*
X15507610Y-12029495D02*
X15517134Y-12010448D01*
X15517134Y-12010448D02*
X15536181Y-11981876D01*
X15536181Y-11981876D02*
X15545705Y-11972352D01*
X15707610Y-12067590D02*
X15707610Y-12200924D01*
X15659991Y-11991400D02*
X15612372Y-12134257D01*
X15612372Y-12134257D02*
X15736181Y-12134257D01*
X15907610Y-12000924D02*
X15812372Y-12000924D01*
X15812372Y-12000924D02*
X15802848Y-12096162D01*
X15802848Y-12096162D02*
X15812372Y-12086638D01*
X15812372Y-12086638D02*
X15831419Y-12077114D01*
X15831419Y-12077114D02*
X15879038Y-12077114D01*
X15879038Y-12077114D02*
X15898086Y-12086638D01*
X15898086Y-12086638D02*
X15907610Y-12096162D01*
X15907610Y-12096162D02*
X15917134Y-12115209D01*
X15917134Y-12115209D02*
X15917134Y-12162828D01*
X15917134Y-12162828D02*
X15907610Y-12181876D01*
X15907610Y-12181876D02*
X15898086Y-12191400D01*
X15898086Y-12191400D02*
X15879038Y-12200924D01*
X15879038Y-12200924D02*
X15831419Y-12200924D01*
X15831419Y-12200924D02*
X15812372Y-12191400D01*
X15812372Y-12191400D02*
X15802848Y-12181876D01*
X16155229Y-12200924D02*
X16155229Y-12000924D01*
X16240943Y-12200924D02*
X16240943Y-12096162D01*
X16240943Y-12096162D02*
X16231419Y-12077114D01*
X16231419Y-12077114D02*
X16212372Y-12067590D01*
X16212372Y-12067590D02*
X16183800Y-12067590D01*
X16183800Y-12067590D02*
X16164753Y-12077114D01*
X16164753Y-12077114D02*
X16155229Y-12086638D01*
X16364753Y-12200924D02*
X16345705Y-12191400D01*
X16345705Y-12191400D02*
X16336181Y-12181876D01*
X16336181Y-12181876D02*
X16326657Y-12162828D01*
X16326657Y-12162828D02*
X16326657Y-12105686D01*
X16326657Y-12105686D02*
X16336181Y-12086638D01*
X16336181Y-12086638D02*
X16345705Y-12077114D01*
X16345705Y-12077114D02*
X16364753Y-12067590D01*
X16364753Y-12067590D02*
X16393324Y-12067590D01*
X16393324Y-12067590D02*
X16412372Y-12077114D01*
X16412372Y-12077114D02*
X16421896Y-12086638D01*
X16421896Y-12086638D02*
X16431419Y-12105686D01*
X16431419Y-12105686D02*
X16431419Y-12162828D01*
X16431419Y-12162828D02*
X16421896Y-12181876D01*
X16421896Y-12181876D02*
X16412372Y-12191400D01*
X16412372Y-12191400D02*
X16393324Y-12200924D01*
X16393324Y-12200924D02*
X16364753Y-12200924D01*
X16545705Y-12200924D02*
X16526657Y-12191400D01*
X16526657Y-12191400D02*
X16517134Y-12172352D01*
X16517134Y-12172352D02*
X16517134Y-12000924D01*
X16698086Y-12191400D02*
X16679038Y-12200924D01*
X16679038Y-12200924D02*
X16640943Y-12200924D01*
X16640943Y-12200924D02*
X16621896Y-12191400D01*
X16621896Y-12191400D02*
X16612372Y-12172352D01*
X16612372Y-12172352D02*
X16612372Y-12096162D01*
X16612372Y-12096162D02*
X16621896Y-12077114D01*
X16621896Y-12077114D02*
X16640943Y-12067590D01*
X16640943Y-12067590D02*
X16679038Y-12067590D01*
X16679038Y-12067590D02*
X16698086Y-12077114D01*
X16698086Y-12077114D02*
X16707610Y-12096162D01*
X16707610Y-12096162D02*
X16707610Y-12115209D01*
X16707610Y-12115209D02*
X16612372Y-12134257D01*
X16783800Y-12191400D02*
X16802848Y-12200924D01*
X16802848Y-12200924D02*
X16840943Y-12200924D01*
X16840943Y-12200924D02*
X16859991Y-12191400D01*
X16859991Y-12191400D02*
X16869515Y-12172352D01*
X16869515Y-12172352D02*
X16869515Y-12162828D01*
X16869515Y-12162828D02*
X16859991Y-12143781D01*
X16859991Y-12143781D02*
X16840943Y-12134257D01*
X16840943Y-12134257D02*
X16812372Y-12134257D01*
X16812372Y-12134257D02*
X16793324Y-12124733D01*
X16793324Y-12124733D02*
X16783800Y-12105686D01*
X16783800Y-12105686D02*
X16783800Y-12096162D01*
X16783800Y-12096162D02*
X16793324Y-12077114D01*
X16793324Y-12077114D02*
X16812372Y-12067590D01*
X16812372Y-12067590D02*
X16840943Y-12067590D01*
X16840943Y-12067590D02*
X16859991Y-12077114D01*
X16936181Y-12277114D02*
X16945705Y-12267590D01*
X16945705Y-12267590D02*
X16964753Y-12239019D01*
X16964753Y-12239019D02*
X16974277Y-12219971D01*
X16974277Y-12219971D02*
X16983800Y-12191400D01*
X16983800Y-12191400D02*
X16993324Y-12143781D01*
X16993324Y-12143781D02*
X16993324Y-12105686D01*
X16993324Y-12105686D02*
X16983800Y-12058067D01*
X16983800Y-12058067D02*
X16974277Y-12029495D01*
X16974277Y-12029495D02*
X16964753Y-12010448D01*
X16964753Y-12010448D02*
X16945705Y-11981876D01*
X16945705Y-11981876D02*
X16936181Y-11972352D01*
D13*
X11983800Y-12372400D02*
G75*
G03*
X11983800Y-12372400I-25000J0D01*
G01*
D11*
X12269514Y-12264924D02*
X12288562Y-12264924D01*
X12288562Y-12264924D02*
X12307609Y-12274448D01*
X12307609Y-12274448D02*
X12317133Y-12283971D01*
X12317133Y-12283971D02*
X12326657Y-12303019D01*
X12326657Y-12303019D02*
X12336181Y-12341114D01*
X12336181Y-12341114D02*
X12336181Y-12388733D01*
X12336181Y-12388733D02*
X12326657Y-12426828D01*
X12326657Y-12426828D02*
X12317133Y-12445876D01*
X12317133Y-12445876D02*
X12307609Y-12455400D01*
X12307609Y-12455400D02*
X12288562Y-12464924D01*
X12288562Y-12464924D02*
X12269514Y-12464924D01*
X12269514Y-12464924D02*
X12250467Y-12455400D01*
X12250467Y-12455400D02*
X12240943Y-12445876D01*
X12240943Y-12445876D02*
X12231419Y-12426828D01*
X12231419Y-12426828D02*
X12221895Y-12388733D01*
X12221895Y-12388733D02*
X12221895Y-12341114D01*
X12221895Y-12341114D02*
X12231419Y-12303019D01*
X12231419Y-12303019D02*
X12240943Y-12283971D01*
X12240943Y-12283971D02*
X12250467Y-12274448D01*
X12250467Y-12274448D02*
X12269514Y-12264924D01*
X12421895Y-12445876D02*
X12431419Y-12455400D01*
X12431419Y-12455400D02*
X12421895Y-12464924D01*
X12421895Y-12464924D02*
X12412371Y-12455400D01*
X12412371Y-12455400D02*
X12421895Y-12445876D01*
X12421895Y-12445876D02*
X12421895Y-12464924D01*
X12612371Y-12264924D02*
X12517133Y-12264924D01*
X12517133Y-12264924D02*
X12507609Y-12360162D01*
X12507609Y-12360162D02*
X12517133Y-12350638D01*
X12517133Y-12350638D02*
X12536181Y-12341114D01*
X12536181Y-12341114D02*
X12583800Y-12341114D01*
X12583800Y-12341114D02*
X12602848Y-12350638D01*
X12602848Y-12350638D02*
X12612371Y-12360162D01*
X12612371Y-12360162D02*
X12621895Y-12379209D01*
X12621895Y-12379209D02*
X12621895Y-12426828D01*
X12621895Y-12426828D02*
X12612371Y-12445876D01*
X12612371Y-12445876D02*
X12602848Y-12455400D01*
X12602848Y-12455400D02*
X12583800Y-12464924D01*
X12583800Y-12464924D02*
X12536181Y-12464924D01*
X12536181Y-12464924D02*
X12517133Y-12455400D01*
X12517133Y-12455400D02*
X12507609Y-12445876D01*
X12745705Y-12264924D02*
X12764752Y-12264924D01*
X12764752Y-12264924D02*
X12783800Y-12274448D01*
X12783800Y-12274448D02*
X12793324Y-12283971D01*
X12793324Y-12283971D02*
X12802848Y-12303019D01*
X12802848Y-12303019D02*
X12812371Y-12341114D01*
X12812371Y-12341114D02*
X12812371Y-12388733D01*
X12812371Y-12388733D02*
X12802848Y-12426828D01*
X12802848Y-12426828D02*
X12793324Y-12445876D01*
X12793324Y-12445876D02*
X12783800Y-12455400D01*
X12783800Y-12455400D02*
X12764752Y-12464924D01*
X12764752Y-12464924D02*
X12745705Y-12464924D01*
X12745705Y-12464924D02*
X12726657Y-12455400D01*
X12726657Y-12455400D02*
X12717133Y-12445876D01*
X12717133Y-12445876D02*
X12707609Y-12426828D01*
X12707609Y-12426828D02*
X12698086Y-12388733D01*
X12698086Y-12388733D02*
X12698086Y-12341114D01*
X12698086Y-12341114D02*
X12707609Y-12303019D01*
X12707609Y-12303019D02*
X12717133Y-12283971D01*
X12717133Y-12283971D02*
X12726657Y-12274448D01*
X12726657Y-12274448D02*
X12745705Y-12264924D01*
X12936181Y-12264924D02*
X12955229Y-12264924D01*
X12955229Y-12264924D02*
X12974276Y-12274448D01*
X12974276Y-12274448D02*
X12983800Y-12283971D01*
X12983800Y-12283971D02*
X12993324Y-12303019D01*
X12993324Y-12303019D02*
X13002848Y-12341114D01*
X13002848Y-12341114D02*
X13002848Y-12388733D01*
X13002848Y-12388733D02*
X12993324Y-12426828D01*
X12993324Y-12426828D02*
X12983800Y-12445876D01*
X12983800Y-12445876D02*
X12974276Y-12455400D01*
X12974276Y-12455400D02*
X12955229Y-12464924D01*
X12955229Y-12464924D02*
X12936181Y-12464924D01*
X12936181Y-12464924D02*
X12917133Y-12455400D01*
X12917133Y-12455400D02*
X12907609Y-12445876D01*
X12907609Y-12445876D02*
X12898086Y-12426828D01*
X12898086Y-12426828D02*
X12888562Y-12388733D01*
X12888562Y-12388733D02*
X12888562Y-12341114D01*
X12888562Y-12341114D02*
X12898086Y-12303019D01*
X12898086Y-12303019D02*
X12907609Y-12283971D01*
X12907609Y-12283971D02*
X12917133Y-12274448D01*
X12917133Y-12274448D02*
X12936181Y-12264924D01*
X13088562Y-12464924D02*
X13088562Y-12331590D01*
X13088562Y-12350638D02*
X13098086Y-12341114D01*
X13098086Y-12341114D02*
X13117133Y-12331590D01*
X13117133Y-12331590D02*
X13145705Y-12331590D01*
X13145705Y-12331590D02*
X13164752Y-12341114D01*
X13164752Y-12341114D02*
X13174276Y-12360162D01*
X13174276Y-12360162D02*
X13174276Y-12464924D01*
X13174276Y-12360162D02*
X13183800Y-12341114D01*
X13183800Y-12341114D02*
X13202848Y-12331590D01*
X13202848Y-12331590D02*
X13231419Y-12331590D01*
X13231419Y-12331590D02*
X13250467Y-12341114D01*
X13250467Y-12341114D02*
X13259990Y-12360162D01*
X13259990Y-12360162D02*
X13259990Y-12464924D01*
X13355229Y-12464924D02*
X13355229Y-12331590D01*
X13355229Y-12350638D02*
X13364752Y-12341114D01*
X13364752Y-12341114D02*
X13383800Y-12331590D01*
X13383800Y-12331590D02*
X13412371Y-12331590D01*
X13412371Y-12331590D02*
X13431419Y-12341114D01*
X13431419Y-12341114D02*
X13440943Y-12360162D01*
X13440943Y-12360162D02*
X13440943Y-12464924D01*
X13440943Y-12360162D02*
X13450467Y-12341114D01*
X13450467Y-12341114D02*
X13469514Y-12331590D01*
X13469514Y-12331590D02*
X13498086Y-12331590D01*
X13498086Y-12331590D02*
X13517133Y-12341114D01*
X13517133Y-12341114D02*
X13526657Y-12360162D01*
X13526657Y-12360162D02*
X13526657Y-12464924D01*
X13917133Y-12255400D02*
X13745705Y-12512543D01*
X14174276Y-12264924D02*
X14193324Y-12264924D01*
X14193324Y-12264924D02*
X14212372Y-12274448D01*
X14212372Y-12274448D02*
X14221895Y-12283971D01*
X14221895Y-12283971D02*
X14231419Y-12303019D01*
X14231419Y-12303019D02*
X14240943Y-12341114D01*
X14240943Y-12341114D02*
X14240943Y-12388733D01*
X14240943Y-12388733D02*
X14231419Y-12426828D01*
X14231419Y-12426828D02*
X14221895Y-12445876D01*
X14221895Y-12445876D02*
X14212372Y-12455400D01*
X14212372Y-12455400D02*
X14193324Y-12464924D01*
X14193324Y-12464924D02*
X14174276Y-12464924D01*
X14174276Y-12464924D02*
X14155229Y-12455400D01*
X14155229Y-12455400D02*
X14145705Y-12445876D01*
X14145705Y-12445876D02*
X14136181Y-12426828D01*
X14136181Y-12426828D02*
X14126657Y-12388733D01*
X14126657Y-12388733D02*
X14126657Y-12341114D01*
X14126657Y-12341114D02*
X14136181Y-12303019D01*
X14136181Y-12303019D02*
X14145705Y-12283971D01*
X14145705Y-12283971D02*
X14155229Y-12274448D01*
X14155229Y-12274448D02*
X14174276Y-12264924D01*
X14326657Y-12445876D02*
X14336181Y-12455400D01*
X14336181Y-12455400D02*
X14326657Y-12464924D01*
X14326657Y-12464924D02*
X14317133Y-12455400D01*
X14317133Y-12455400D02*
X14326657Y-12445876D01*
X14326657Y-12445876D02*
X14326657Y-12464924D01*
X14459991Y-12264924D02*
X14479038Y-12264924D01*
X14479038Y-12264924D02*
X14498086Y-12274448D01*
X14498086Y-12274448D02*
X14507610Y-12283971D01*
X14507610Y-12283971D02*
X14517133Y-12303019D01*
X14517133Y-12303019D02*
X14526657Y-12341114D01*
X14526657Y-12341114D02*
X14526657Y-12388733D01*
X14526657Y-12388733D02*
X14517133Y-12426828D01*
X14517133Y-12426828D02*
X14507610Y-12445876D01*
X14507610Y-12445876D02*
X14498086Y-12455400D01*
X14498086Y-12455400D02*
X14479038Y-12464924D01*
X14479038Y-12464924D02*
X14459991Y-12464924D01*
X14459991Y-12464924D02*
X14440943Y-12455400D01*
X14440943Y-12455400D02*
X14431419Y-12445876D01*
X14431419Y-12445876D02*
X14421895Y-12426828D01*
X14421895Y-12426828D02*
X14412372Y-12388733D01*
X14412372Y-12388733D02*
X14412372Y-12341114D01*
X14412372Y-12341114D02*
X14421895Y-12303019D01*
X14421895Y-12303019D02*
X14431419Y-12283971D01*
X14431419Y-12283971D02*
X14440943Y-12274448D01*
X14440943Y-12274448D02*
X14459991Y-12264924D01*
X14717133Y-12464924D02*
X14602848Y-12464924D01*
X14659991Y-12464924D02*
X14659991Y-12264924D01*
X14659991Y-12264924D02*
X14640943Y-12293495D01*
X14640943Y-12293495D02*
X14621895Y-12312543D01*
X14621895Y-12312543D02*
X14602848Y-12322067D01*
X14812372Y-12464924D02*
X14850467Y-12464924D01*
X14850467Y-12464924D02*
X14869514Y-12455400D01*
X14869514Y-12455400D02*
X14879038Y-12445876D01*
X14879038Y-12445876D02*
X14898086Y-12417305D01*
X14898086Y-12417305D02*
X14907610Y-12379209D01*
X14907610Y-12379209D02*
X14907610Y-12303019D01*
X14907610Y-12303019D02*
X14898086Y-12283971D01*
X14898086Y-12283971D02*
X14888562Y-12274448D01*
X14888562Y-12274448D02*
X14869514Y-12264924D01*
X14869514Y-12264924D02*
X14831419Y-12264924D01*
X14831419Y-12264924D02*
X14812372Y-12274448D01*
X14812372Y-12274448D02*
X14802848Y-12283971D01*
X14802848Y-12283971D02*
X14793324Y-12303019D01*
X14793324Y-12303019D02*
X14793324Y-12350638D01*
X14793324Y-12350638D02*
X14802848Y-12369686D01*
X14802848Y-12369686D02*
X14812372Y-12379209D01*
X14812372Y-12379209D02*
X14831419Y-12388733D01*
X14831419Y-12388733D02*
X14869514Y-12388733D01*
X14869514Y-12388733D02*
X14888562Y-12379209D01*
X14888562Y-12379209D02*
X14898086Y-12369686D01*
X14898086Y-12369686D02*
X14907610Y-12350638D01*
X14974276Y-12264924D02*
X15107610Y-12264924D01*
X15107610Y-12264924D02*
X15021895Y-12464924D01*
X15174276Y-12264924D02*
X15174276Y-12303019D01*
X15250467Y-12264924D02*
X15250467Y-12303019D01*
X15545705Y-12541114D02*
X15536181Y-12531590D01*
X15536181Y-12531590D02*
X15517134Y-12503019D01*
X15517134Y-12503019D02*
X15507610Y-12483971D01*
X15507610Y-12483971D02*
X15498086Y-12455400D01*
X15498086Y-12455400D02*
X15488562Y-12407781D01*
X15488562Y-12407781D02*
X15488562Y-12369686D01*
X15488562Y-12369686D02*
X15498086Y-12322067D01*
X15498086Y-12322067D02*
X15507610Y-12293495D01*
X15507610Y-12293495D02*
X15517134Y-12274448D01*
X15517134Y-12274448D02*
X15536181Y-12245876D01*
X15536181Y-12245876D02*
X15545705Y-12236352D01*
X15602848Y-12264924D02*
X15726657Y-12264924D01*
X15726657Y-12264924D02*
X15659991Y-12341114D01*
X15659991Y-12341114D02*
X15688562Y-12341114D01*
X15688562Y-12341114D02*
X15707610Y-12350638D01*
X15707610Y-12350638D02*
X15717134Y-12360162D01*
X15717134Y-12360162D02*
X15726657Y-12379209D01*
X15726657Y-12379209D02*
X15726657Y-12426828D01*
X15726657Y-12426828D02*
X15717134Y-12445876D01*
X15717134Y-12445876D02*
X15707610Y-12455400D01*
X15707610Y-12455400D02*
X15688562Y-12464924D01*
X15688562Y-12464924D02*
X15631419Y-12464924D01*
X15631419Y-12464924D02*
X15612372Y-12455400D01*
X15612372Y-12455400D02*
X15602848Y-12445876D01*
X15802848Y-12283971D02*
X15812372Y-12274448D01*
X15812372Y-12274448D02*
X15831419Y-12264924D01*
X15831419Y-12264924D02*
X15879038Y-12264924D01*
X15879038Y-12264924D02*
X15898086Y-12274448D01*
X15898086Y-12274448D02*
X15907610Y-12283971D01*
X15907610Y-12283971D02*
X15917134Y-12303019D01*
X15917134Y-12303019D02*
X15917134Y-12322067D01*
X15917134Y-12322067D02*
X15907610Y-12350638D01*
X15907610Y-12350638D02*
X15793324Y-12464924D01*
X15793324Y-12464924D02*
X15917134Y-12464924D01*
X16155229Y-12464924D02*
X16155229Y-12264924D01*
X16240943Y-12464924D02*
X16240943Y-12360162D01*
X16240943Y-12360162D02*
X16231419Y-12341114D01*
X16231419Y-12341114D02*
X16212372Y-12331590D01*
X16212372Y-12331590D02*
X16183800Y-12331590D01*
X16183800Y-12331590D02*
X16164753Y-12341114D01*
X16164753Y-12341114D02*
X16155229Y-12350638D01*
X16364753Y-12464924D02*
X16345705Y-12455400D01*
X16345705Y-12455400D02*
X16336181Y-12445876D01*
X16336181Y-12445876D02*
X16326657Y-12426828D01*
X16326657Y-12426828D02*
X16326657Y-12369686D01*
X16326657Y-12369686D02*
X16336181Y-12350638D01*
X16336181Y-12350638D02*
X16345705Y-12341114D01*
X16345705Y-12341114D02*
X16364753Y-12331590D01*
X16364753Y-12331590D02*
X16393324Y-12331590D01*
X16393324Y-12331590D02*
X16412372Y-12341114D01*
X16412372Y-12341114D02*
X16421896Y-12350638D01*
X16421896Y-12350638D02*
X16431419Y-12369686D01*
X16431419Y-12369686D02*
X16431419Y-12426828D01*
X16431419Y-12426828D02*
X16421896Y-12445876D01*
X16421896Y-12445876D02*
X16412372Y-12455400D01*
X16412372Y-12455400D02*
X16393324Y-12464924D01*
X16393324Y-12464924D02*
X16364753Y-12464924D01*
X16545705Y-12464924D02*
X16526657Y-12455400D01*
X16526657Y-12455400D02*
X16517134Y-12436352D01*
X16517134Y-12436352D02*
X16517134Y-12264924D01*
X16698086Y-12455400D02*
X16679038Y-12464924D01*
X16679038Y-12464924D02*
X16640943Y-12464924D01*
X16640943Y-12464924D02*
X16621896Y-12455400D01*
X16621896Y-12455400D02*
X16612372Y-12436352D01*
X16612372Y-12436352D02*
X16612372Y-12360162D01*
X16612372Y-12360162D02*
X16621896Y-12341114D01*
X16621896Y-12341114D02*
X16640943Y-12331590D01*
X16640943Y-12331590D02*
X16679038Y-12331590D01*
X16679038Y-12331590D02*
X16698086Y-12341114D01*
X16698086Y-12341114D02*
X16707610Y-12360162D01*
X16707610Y-12360162D02*
X16707610Y-12379209D01*
X16707610Y-12379209D02*
X16612372Y-12398257D01*
X16783800Y-12455400D02*
X16802848Y-12464924D01*
X16802848Y-12464924D02*
X16840943Y-12464924D01*
X16840943Y-12464924D02*
X16859991Y-12455400D01*
X16859991Y-12455400D02*
X16869515Y-12436352D01*
X16869515Y-12436352D02*
X16869515Y-12426828D01*
X16869515Y-12426828D02*
X16859991Y-12407781D01*
X16859991Y-12407781D02*
X16840943Y-12398257D01*
X16840943Y-12398257D02*
X16812372Y-12398257D01*
X16812372Y-12398257D02*
X16793324Y-12388733D01*
X16793324Y-12388733D02*
X16783800Y-12369686D01*
X16783800Y-12369686D02*
X16783800Y-12360162D01*
X16783800Y-12360162D02*
X16793324Y-12341114D01*
X16793324Y-12341114D02*
X16812372Y-12331590D01*
X16812372Y-12331590D02*
X16840943Y-12331590D01*
X16840943Y-12331590D02*
X16859991Y-12341114D01*
X16936181Y-12541114D02*
X16945705Y-12531590D01*
X16945705Y-12531590D02*
X16964753Y-12503019D01*
X16964753Y-12503019D02*
X16974277Y-12483971D01*
X16974277Y-12483971D02*
X16983800Y-12455400D01*
X16983800Y-12455400D02*
X16993324Y-12407781D01*
X16993324Y-12407781D02*
X16993324Y-12369686D01*
X16993324Y-12369686D02*
X16983800Y-12322067D01*
X16983800Y-12322067D02*
X16974277Y-12293495D01*
X16974277Y-12293495D02*
X16964753Y-12274448D01*
X16964753Y-12274448D02*
X16945705Y-12245876D01*
X16945705Y-12245876D02*
X16936181Y-12236352D01*
D14*
X11945300Y-12597900D02*
X11945300Y-12674900D01*
X11906800Y-12636400D02*
X11983800Y-12636400D01*
D11*
X12269514Y-12528924D02*
X12288562Y-12528924D01*
X12288562Y-12528924D02*
X12307609Y-12538448D01*
X12307609Y-12538448D02*
X12317133Y-12547971D01*
X12317133Y-12547971D02*
X12326657Y-12567019D01*
X12326657Y-12567019D02*
X12336181Y-12605114D01*
X12336181Y-12605114D02*
X12336181Y-12652733D01*
X12336181Y-12652733D02*
X12326657Y-12690828D01*
X12326657Y-12690828D02*
X12317133Y-12709876D01*
X12317133Y-12709876D02*
X12307609Y-12719400D01*
X12307609Y-12719400D02*
X12288562Y-12728924D01*
X12288562Y-12728924D02*
X12269514Y-12728924D01*
X12269514Y-12728924D02*
X12250467Y-12719400D01*
X12250467Y-12719400D02*
X12240943Y-12709876D01*
X12240943Y-12709876D02*
X12231419Y-12690828D01*
X12231419Y-12690828D02*
X12221895Y-12652733D01*
X12221895Y-12652733D02*
X12221895Y-12605114D01*
X12221895Y-12605114D02*
X12231419Y-12567019D01*
X12231419Y-12567019D02*
X12240943Y-12547971D01*
X12240943Y-12547971D02*
X12250467Y-12538448D01*
X12250467Y-12538448D02*
X12269514Y-12528924D01*
X12421895Y-12709876D02*
X12431419Y-12719400D01*
X12431419Y-12719400D02*
X12421895Y-12728924D01*
X12421895Y-12728924D02*
X12412371Y-12719400D01*
X12412371Y-12719400D02*
X12421895Y-12709876D01*
X12421895Y-12709876D02*
X12421895Y-12728924D01*
X12498086Y-12528924D02*
X12631419Y-12528924D01*
X12631419Y-12528924D02*
X12545705Y-12728924D01*
X12688562Y-12528924D02*
X12821895Y-12528924D01*
X12821895Y-12528924D02*
X12736181Y-12728924D01*
X12936181Y-12528924D02*
X12955229Y-12528924D01*
X12955229Y-12528924D02*
X12974276Y-12538448D01*
X12974276Y-12538448D02*
X12983800Y-12547971D01*
X12983800Y-12547971D02*
X12993324Y-12567019D01*
X12993324Y-12567019D02*
X13002848Y-12605114D01*
X13002848Y-12605114D02*
X13002848Y-12652733D01*
X13002848Y-12652733D02*
X12993324Y-12690828D01*
X12993324Y-12690828D02*
X12983800Y-12709876D01*
X12983800Y-12709876D02*
X12974276Y-12719400D01*
X12974276Y-12719400D02*
X12955229Y-12728924D01*
X12955229Y-12728924D02*
X12936181Y-12728924D01*
X12936181Y-12728924D02*
X12917133Y-12719400D01*
X12917133Y-12719400D02*
X12907609Y-12709876D01*
X12907609Y-12709876D02*
X12898086Y-12690828D01*
X12898086Y-12690828D02*
X12888562Y-12652733D01*
X12888562Y-12652733D02*
X12888562Y-12605114D01*
X12888562Y-12605114D02*
X12898086Y-12567019D01*
X12898086Y-12567019D02*
X12907609Y-12547971D01*
X12907609Y-12547971D02*
X12917133Y-12538448D01*
X12917133Y-12538448D02*
X12936181Y-12528924D01*
X13088562Y-12728924D02*
X13088562Y-12595590D01*
X13088562Y-12614638D02*
X13098086Y-12605114D01*
X13098086Y-12605114D02*
X13117133Y-12595590D01*
X13117133Y-12595590D02*
X13145705Y-12595590D01*
X13145705Y-12595590D02*
X13164752Y-12605114D01*
X13164752Y-12605114D02*
X13174276Y-12624162D01*
X13174276Y-12624162D02*
X13174276Y-12728924D01*
X13174276Y-12624162D02*
X13183800Y-12605114D01*
X13183800Y-12605114D02*
X13202848Y-12595590D01*
X13202848Y-12595590D02*
X13231419Y-12595590D01*
X13231419Y-12595590D02*
X13250467Y-12605114D01*
X13250467Y-12605114D02*
X13259990Y-12624162D01*
X13259990Y-12624162D02*
X13259990Y-12728924D01*
X13355229Y-12728924D02*
X13355229Y-12595590D01*
X13355229Y-12614638D02*
X13364752Y-12605114D01*
X13364752Y-12605114D02*
X13383800Y-12595590D01*
X13383800Y-12595590D02*
X13412371Y-12595590D01*
X13412371Y-12595590D02*
X13431419Y-12605114D01*
X13431419Y-12605114D02*
X13440943Y-12624162D01*
X13440943Y-12624162D02*
X13440943Y-12728924D01*
X13440943Y-12624162D02*
X13450467Y-12605114D01*
X13450467Y-12605114D02*
X13469514Y-12595590D01*
X13469514Y-12595590D02*
X13498086Y-12595590D01*
X13498086Y-12595590D02*
X13517133Y-12605114D01*
X13517133Y-12605114D02*
X13526657Y-12624162D01*
X13526657Y-12624162D02*
X13526657Y-12728924D01*
X13917133Y-12519400D02*
X13745705Y-12776543D01*
X14174276Y-12528924D02*
X14193324Y-12528924D01*
X14193324Y-12528924D02*
X14212372Y-12538448D01*
X14212372Y-12538448D02*
X14221895Y-12547971D01*
X14221895Y-12547971D02*
X14231419Y-12567019D01*
X14231419Y-12567019D02*
X14240943Y-12605114D01*
X14240943Y-12605114D02*
X14240943Y-12652733D01*
X14240943Y-12652733D02*
X14231419Y-12690828D01*
X14231419Y-12690828D02*
X14221895Y-12709876D01*
X14221895Y-12709876D02*
X14212372Y-12719400D01*
X14212372Y-12719400D02*
X14193324Y-12728924D01*
X14193324Y-12728924D02*
X14174276Y-12728924D01*
X14174276Y-12728924D02*
X14155229Y-12719400D01*
X14155229Y-12719400D02*
X14145705Y-12709876D01*
X14145705Y-12709876D02*
X14136181Y-12690828D01*
X14136181Y-12690828D02*
X14126657Y-12652733D01*
X14126657Y-12652733D02*
X14126657Y-12605114D01*
X14126657Y-12605114D02*
X14136181Y-12567019D01*
X14136181Y-12567019D02*
X14145705Y-12547971D01*
X14145705Y-12547971D02*
X14155229Y-12538448D01*
X14155229Y-12538448D02*
X14174276Y-12528924D01*
X14326657Y-12709876D02*
X14336181Y-12719400D01*
X14336181Y-12719400D02*
X14326657Y-12728924D01*
X14326657Y-12728924D02*
X14317133Y-12719400D01*
X14317133Y-12719400D02*
X14326657Y-12709876D01*
X14326657Y-12709876D02*
X14326657Y-12728924D01*
X14459991Y-12528924D02*
X14479038Y-12528924D01*
X14479038Y-12528924D02*
X14498086Y-12538448D01*
X14498086Y-12538448D02*
X14507610Y-12547971D01*
X14507610Y-12547971D02*
X14517133Y-12567019D01*
X14517133Y-12567019D02*
X14526657Y-12605114D01*
X14526657Y-12605114D02*
X14526657Y-12652733D01*
X14526657Y-12652733D02*
X14517133Y-12690828D01*
X14517133Y-12690828D02*
X14507610Y-12709876D01*
X14507610Y-12709876D02*
X14498086Y-12719400D01*
X14498086Y-12719400D02*
X14479038Y-12728924D01*
X14479038Y-12728924D02*
X14459991Y-12728924D01*
X14459991Y-12728924D02*
X14440943Y-12719400D01*
X14440943Y-12719400D02*
X14431419Y-12709876D01*
X14431419Y-12709876D02*
X14421895Y-12690828D01*
X14421895Y-12690828D02*
X14412372Y-12652733D01*
X14412372Y-12652733D02*
X14412372Y-12605114D01*
X14412372Y-12605114D02*
X14421895Y-12567019D01*
X14421895Y-12567019D02*
X14431419Y-12547971D01*
X14431419Y-12547971D02*
X14440943Y-12538448D01*
X14440943Y-12538448D02*
X14459991Y-12528924D01*
X14593324Y-12528924D02*
X14717133Y-12528924D01*
X14717133Y-12528924D02*
X14650467Y-12605114D01*
X14650467Y-12605114D02*
X14679038Y-12605114D01*
X14679038Y-12605114D02*
X14698086Y-12614638D01*
X14698086Y-12614638D02*
X14707610Y-12624162D01*
X14707610Y-12624162D02*
X14717133Y-12643209D01*
X14717133Y-12643209D02*
X14717133Y-12690828D01*
X14717133Y-12690828D02*
X14707610Y-12709876D01*
X14707610Y-12709876D02*
X14698086Y-12719400D01*
X14698086Y-12719400D02*
X14679038Y-12728924D01*
X14679038Y-12728924D02*
X14621895Y-12728924D01*
X14621895Y-12728924D02*
X14602848Y-12719400D01*
X14602848Y-12719400D02*
X14593324Y-12709876D01*
X14840943Y-12528924D02*
X14859991Y-12528924D01*
X14859991Y-12528924D02*
X14879038Y-12538448D01*
X14879038Y-12538448D02*
X14888562Y-12547971D01*
X14888562Y-12547971D02*
X14898086Y-12567019D01*
X14898086Y-12567019D02*
X14907610Y-12605114D01*
X14907610Y-12605114D02*
X14907610Y-12652733D01*
X14907610Y-12652733D02*
X14898086Y-12690828D01*
X14898086Y-12690828D02*
X14888562Y-12709876D01*
X14888562Y-12709876D02*
X14879038Y-12719400D01*
X14879038Y-12719400D02*
X14859991Y-12728924D01*
X14859991Y-12728924D02*
X14840943Y-12728924D01*
X14840943Y-12728924D02*
X14821895Y-12719400D01*
X14821895Y-12719400D02*
X14812372Y-12709876D01*
X14812372Y-12709876D02*
X14802848Y-12690828D01*
X14802848Y-12690828D02*
X14793324Y-12652733D01*
X14793324Y-12652733D02*
X14793324Y-12605114D01*
X14793324Y-12605114D02*
X14802848Y-12567019D01*
X14802848Y-12567019D02*
X14812372Y-12547971D01*
X14812372Y-12547971D02*
X14821895Y-12538448D01*
X14821895Y-12538448D02*
X14840943Y-12528924D01*
X14974276Y-12528924D02*
X15098086Y-12528924D01*
X15098086Y-12528924D02*
X15031419Y-12605114D01*
X15031419Y-12605114D02*
X15059991Y-12605114D01*
X15059991Y-12605114D02*
X15079038Y-12614638D01*
X15079038Y-12614638D02*
X15088562Y-12624162D01*
X15088562Y-12624162D02*
X15098086Y-12643209D01*
X15098086Y-12643209D02*
X15098086Y-12690828D01*
X15098086Y-12690828D02*
X15088562Y-12709876D01*
X15088562Y-12709876D02*
X15079038Y-12719400D01*
X15079038Y-12719400D02*
X15059991Y-12728924D01*
X15059991Y-12728924D02*
X15002848Y-12728924D01*
X15002848Y-12728924D02*
X14983800Y-12719400D01*
X14983800Y-12719400D02*
X14974276Y-12709876D01*
X15174276Y-12528924D02*
X15174276Y-12567019D01*
X15250467Y-12528924D02*
X15250467Y-12567019D01*
X15545705Y-12805114D02*
X15536181Y-12795590D01*
X15536181Y-12795590D02*
X15517134Y-12767019D01*
X15517134Y-12767019D02*
X15507610Y-12747971D01*
X15507610Y-12747971D02*
X15498086Y-12719400D01*
X15498086Y-12719400D02*
X15488562Y-12671781D01*
X15488562Y-12671781D02*
X15488562Y-12633686D01*
X15488562Y-12633686D02*
X15498086Y-12586067D01*
X15498086Y-12586067D02*
X15507610Y-12557495D01*
X15507610Y-12557495D02*
X15517134Y-12538448D01*
X15517134Y-12538448D02*
X15536181Y-12509876D01*
X15536181Y-12509876D02*
X15545705Y-12500352D01*
X15707610Y-12595590D02*
X15707610Y-12728924D01*
X15659991Y-12519400D02*
X15612372Y-12662257D01*
X15612372Y-12662257D02*
X15736181Y-12662257D01*
X15964753Y-12728924D02*
X15964753Y-12528924D01*
X16050467Y-12728924D02*
X16050467Y-12624162D01*
X16050467Y-12624162D02*
X16040943Y-12605114D01*
X16040943Y-12605114D02*
X16021896Y-12595590D01*
X16021896Y-12595590D02*
X15993324Y-12595590D01*
X15993324Y-12595590D02*
X15974276Y-12605114D01*
X15974276Y-12605114D02*
X15964753Y-12614638D01*
X16174276Y-12728924D02*
X16155229Y-12719400D01*
X16155229Y-12719400D02*
X16145705Y-12709876D01*
X16145705Y-12709876D02*
X16136181Y-12690828D01*
X16136181Y-12690828D02*
X16136181Y-12633686D01*
X16136181Y-12633686D02*
X16145705Y-12614638D01*
X16145705Y-12614638D02*
X16155229Y-12605114D01*
X16155229Y-12605114D02*
X16174276Y-12595590D01*
X16174276Y-12595590D02*
X16202848Y-12595590D01*
X16202848Y-12595590D02*
X16221896Y-12605114D01*
X16221896Y-12605114D02*
X16231419Y-12614638D01*
X16231419Y-12614638D02*
X16240943Y-12633686D01*
X16240943Y-12633686D02*
X16240943Y-12690828D01*
X16240943Y-12690828D02*
X16231419Y-12709876D01*
X16231419Y-12709876D02*
X16221896Y-12719400D01*
X16221896Y-12719400D02*
X16202848Y-12728924D01*
X16202848Y-12728924D02*
X16174276Y-12728924D01*
X16355229Y-12728924D02*
X16336181Y-12719400D01*
X16336181Y-12719400D02*
X16326657Y-12700352D01*
X16326657Y-12700352D02*
X16326657Y-12528924D01*
X16507610Y-12719400D02*
X16488562Y-12728924D01*
X16488562Y-12728924D02*
X16450467Y-12728924D01*
X16450467Y-12728924D02*
X16431419Y-12719400D01*
X16431419Y-12719400D02*
X16421896Y-12700352D01*
X16421896Y-12700352D02*
X16421896Y-12624162D01*
X16421896Y-12624162D02*
X16431419Y-12605114D01*
X16431419Y-12605114D02*
X16450467Y-12595590D01*
X16450467Y-12595590D02*
X16488562Y-12595590D01*
X16488562Y-12595590D02*
X16507610Y-12605114D01*
X16507610Y-12605114D02*
X16517134Y-12624162D01*
X16517134Y-12624162D02*
X16517134Y-12643209D01*
X16517134Y-12643209D02*
X16421896Y-12662257D01*
X16593324Y-12719400D02*
X16612372Y-12728924D01*
X16612372Y-12728924D02*
X16650467Y-12728924D01*
X16650467Y-12728924D02*
X16669515Y-12719400D01*
X16669515Y-12719400D02*
X16679038Y-12700352D01*
X16679038Y-12700352D02*
X16679038Y-12690828D01*
X16679038Y-12690828D02*
X16669515Y-12671781D01*
X16669515Y-12671781D02*
X16650467Y-12662257D01*
X16650467Y-12662257D02*
X16621896Y-12662257D01*
X16621896Y-12662257D02*
X16602848Y-12652733D01*
X16602848Y-12652733D02*
X16593324Y-12633686D01*
X16593324Y-12633686D02*
X16593324Y-12624162D01*
X16593324Y-12624162D02*
X16602848Y-12605114D01*
X16602848Y-12605114D02*
X16621896Y-12595590D01*
X16621896Y-12595590D02*
X16650467Y-12595590D01*
X16650467Y-12595590D02*
X16669515Y-12605114D01*
X16745705Y-12805114D02*
X16755229Y-12795590D01*
X16755229Y-12795590D02*
X16774277Y-12767019D01*
X16774277Y-12767019D02*
X16783800Y-12747971D01*
X16783800Y-12747971D02*
X16793324Y-12719400D01*
X16793324Y-12719400D02*
X16802848Y-12671781D01*
X16802848Y-12671781D02*
X16802848Y-12633686D01*
X16802848Y-12633686D02*
X16793324Y-12586067D01*
X16793324Y-12586067D02*
X16783800Y-12557495D01*
X16783800Y-12557495D02*
X16774277Y-12538448D01*
X16774277Y-12538448D02*
X16755229Y-12509876D01*
X16755229Y-12509876D02*
X16745705Y-12500352D01*
D15*
X11972084Y-12928684D02*
X11972084Y-12872115D01*
X11915515Y-12872115D01*
X11915515Y-12928684D01*
X11972084Y-12928684D01*
D11*
X12269514Y-12792924D02*
X12288562Y-12792924D01*
X12288562Y-12792924D02*
X12307609Y-12802448D01*
X12307609Y-12802448D02*
X12317133Y-12811971D01*
X12317133Y-12811971D02*
X12326657Y-12831019D01*
X12326657Y-12831019D02*
X12336181Y-12869114D01*
X12336181Y-12869114D02*
X12336181Y-12916733D01*
X12336181Y-12916733D02*
X12326657Y-12954828D01*
X12326657Y-12954828D02*
X12317133Y-12973876D01*
X12317133Y-12973876D02*
X12307609Y-12983400D01*
X12307609Y-12983400D02*
X12288562Y-12992924D01*
X12288562Y-12992924D02*
X12269514Y-12992924D01*
X12269514Y-12992924D02*
X12250467Y-12983400D01*
X12250467Y-12983400D02*
X12240943Y-12973876D01*
X12240943Y-12973876D02*
X12231419Y-12954828D01*
X12231419Y-12954828D02*
X12221895Y-12916733D01*
X12221895Y-12916733D02*
X12221895Y-12869114D01*
X12221895Y-12869114D02*
X12231419Y-12831019D01*
X12231419Y-12831019D02*
X12240943Y-12811971D01*
X12240943Y-12811971D02*
X12250467Y-12802448D01*
X12250467Y-12802448D02*
X12269514Y-12792924D01*
X12421895Y-12973876D02*
X12431419Y-12983400D01*
X12431419Y-12983400D02*
X12421895Y-12992924D01*
X12421895Y-12992924D02*
X12412371Y-12983400D01*
X12412371Y-12983400D02*
X12421895Y-12973876D01*
X12421895Y-12973876D02*
X12421895Y-12992924D01*
X12545705Y-12878638D02*
X12526657Y-12869114D01*
X12526657Y-12869114D02*
X12517133Y-12859590D01*
X12517133Y-12859590D02*
X12507609Y-12840543D01*
X12507609Y-12840543D02*
X12507609Y-12831019D01*
X12507609Y-12831019D02*
X12517133Y-12811971D01*
X12517133Y-12811971D02*
X12526657Y-12802448D01*
X12526657Y-12802448D02*
X12545705Y-12792924D01*
X12545705Y-12792924D02*
X12583800Y-12792924D01*
X12583800Y-12792924D02*
X12602848Y-12802448D01*
X12602848Y-12802448D02*
X12612371Y-12811971D01*
X12612371Y-12811971D02*
X12621895Y-12831019D01*
X12621895Y-12831019D02*
X12621895Y-12840543D01*
X12621895Y-12840543D02*
X12612371Y-12859590D01*
X12612371Y-12859590D02*
X12602848Y-12869114D01*
X12602848Y-12869114D02*
X12583800Y-12878638D01*
X12583800Y-12878638D02*
X12545705Y-12878638D01*
X12545705Y-12878638D02*
X12526657Y-12888162D01*
X12526657Y-12888162D02*
X12517133Y-12897686D01*
X12517133Y-12897686D02*
X12507609Y-12916733D01*
X12507609Y-12916733D02*
X12507609Y-12954828D01*
X12507609Y-12954828D02*
X12517133Y-12973876D01*
X12517133Y-12973876D02*
X12526657Y-12983400D01*
X12526657Y-12983400D02*
X12545705Y-12992924D01*
X12545705Y-12992924D02*
X12583800Y-12992924D01*
X12583800Y-12992924D02*
X12602848Y-12983400D01*
X12602848Y-12983400D02*
X12612371Y-12973876D01*
X12612371Y-12973876D02*
X12621895Y-12954828D01*
X12621895Y-12954828D02*
X12621895Y-12916733D01*
X12621895Y-12916733D02*
X12612371Y-12897686D01*
X12612371Y-12897686D02*
X12602848Y-12888162D01*
X12602848Y-12888162D02*
X12583800Y-12878638D01*
X12745705Y-12792924D02*
X12764752Y-12792924D01*
X12764752Y-12792924D02*
X12783800Y-12802448D01*
X12783800Y-12802448D02*
X12793324Y-12811971D01*
X12793324Y-12811971D02*
X12802848Y-12831019D01*
X12802848Y-12831019D02*
X12812371Y-12869114D01*
X12812371Y-12869114D02*
X12812371Y-12916733D01*
X12812371Y-12916733D02*
X12802848Y-12954828D01*
X12802848Y-12954828D02*
X12793324Y-12973876D01*
X12793324Y-12973876D02*
X12783800Y-12983400D01*
X12783800Y-12983400D02*
X12764752Y-12992924D01*
X12764752Y-12992924D02*
X12745705Y-12992924D01*
X12745705Y-12992924D02*
X12726657Y-12983400D01*
X12726657Y-12983400D02*
X12717133Y-12973876D01*
X12717133Y-12973876D02*
X12707609Y-12954828D01*
X12707609Y-12954828D02*
X12698086Y-12916733D01*
X12698086Y-12916733D02*
X12698086Y-12869114D01*
X12698086Y-12869114D02*
X12707609Y-12831019D01*
X12707609Y-12831019D02*
X12717133Y-12811971D01*
X12717133Y-12811971D02*
X12726657Y-12802448D01*
X12726657Y-12802448D02*
X12745705Y-12792924D01*
X12936181Y-12792924D02*
X12955229Y-12792924D01*
X12955229Y-12792924D02*
X12974276Y-12802448D01*
X12974276Y-12802448D02*
X12983800Y-12811971D01*
X12983800Y-12811971D02*
X12993324Y-12831019D01*
X12993324Y-12831019D02*
X13002848Y-12869114D01*
X13002848Y-12869114D02*
X13002848Y-12916733D01*
X13002848Y-12916733D02*
X12993324Y-12954828D01*
X12993324Y-12954828D02*
X12983800Y-12973876D01*
X12983800Y-12973876D02*
X12974276Y-12983400D01*
X12974276Y-12983400D02*
X12955229Y-12992924D01*
X12955229Y-12992924D02*
X12936181Y-12992924D01*
X12936181Y-12992924D02*
X12917133Y-12983400D01*
X12917133Y-12983400D02*
X12907609Y-12973876D01*
X12907609Y-12973876D02*
X12898086Y-12954828D01*
X12898086Y-12954828D02*
X12888562Y-12916733D01*
X12888562Y-12916733D02*
X12888562Y-12869114D01*
X12888562Y-12869114D02*
X12898086Y-12831019D01*
X12898086Y-12831019D02*
X12907609Y-12811971D01*
X12907609Y-12811971D02*
X12917133Y-12802448D01*
X12917133Y-12802448D02*
X12936181Y-12792924D01*
X13088562Y-12992924D02*
X13088562Y-12859590D01*
X13088562Y-12878638D02*
X13098086Y-12869114D01*
X13098086Y-12869114D02*
X13117133Y-12859590D01*
X13117133Y-12859590D02*
X13145705Y-12859590D01*
X13145705Y-12859590D02*
X13164752Y-12869114D01*
X13164752Y-12869114D02*
X13174276Y-12888162D01*
X13174276Y-12888162D02*
X13174276Y-12992924D01*
X13174276Y-12888162D02*
X13183800Y-12869114D01*
X13183800Y-12869114D02*
X13202848Y-12859590D01*
X13202848Y-12859590D02*
X13231419Y-12859590D01*
X13231419Y-12859590D02*
X13250467Y-12869114D01*
X13250467Y-12869114D02*
X13259990Y-12888162D01*
X13259990Y-12888162D02*
X13259990Y-12992924D01*
X13355229Y-12992924D02*
X13355229Y-12859590D01*
X13355229Y-12878638D02*
X13364752Y-12869114D01*
X13364752Y-12869114D02*
X13383800Y-12859590D01*
X13383800Y-12859590D02*
X13412371Y-12859590D01*
X13412371Y-12859590D02*
X13431419Y-12869114D01*
X13431419Y-12869114D02*
X13440943Y-12888162D01*
X13440943Y-12888162D02*
X13440943Y-12992924D01*
X13440943Y-12888162D02*
X13450467Y-12869114D01*
X13450467Y-12869114D02*
X13469514Y-12859590D01*
X13469514Y-12859590D02*
X13498086Y-12859590D01*
X13498086Y-12859590D02*
X13517133Y-12869114D01*
X13517133Y-12869114D02*
X13526657Y-12888162D01*
X13526657Y-12888162D02*
X13526657Y-12992924D01*
X13917133Y-12783400D02*
X13745705Y-13040543D01*
X14174276Y-12792924D02*
X14193324Y-12792924D01*
X14193324Y-12792924D02*
X14212372Y-12802448D01*
X14212372Y-12802448D02*
X14221895Y-12811971D01*
X14221895Y-12811971D02*
X14231419Y-12831019D01*
X14231419Y-12831019D02*
X14240943Y-12869114D01*
X14240943Y-12869114D02*
X14240943Y-12916733D01*
X14240943Y-12916733D02*
X14231419Y-12954828D01*
X14231419Y-12954828D02*
X14221895Y-12973876D01*
X14221895Y-12973876D02*
X14212372Y-12983400D01*
X14212372Y-12983400D02*
X14193324Y-12992924D01*
X14193324Y-12992924D02*
X14174276Y-12992924D01*
X14174276Y-12992924D02*
X14155229Y-12983400D01*
X14155229Y-12983400D02*
X14145705Y-12973876D01*
X14145705Y-12973876D02*
X14136181Y-12954828D01*
X14136181Y-12954828D02*
X14126657Y-12916733D01*
X14126657Y-12916733D02*
X14126657Y-12869114D01*
X14126657Y-12869114D02*
X14136181Y-12831019D01*
X14136181Y-12831019D02*
X14145705Y-12811971D01*
X14145705Y-12811971D02*
X14155229Y-12802448D01*
X14155229Y-12802448D02*
X14174276Y-12792924D01*
X14326657Y-12973876D02*
X14336181Y-12983400D01*
X14336181Y-12983400D02*
X14326657Y-12992924D01*
X14326657Y-12992924D02*
X14317133Y-12983400D01*
X14317133Y-12983400D02*
X14326657Y-12973876D01*
X14326657Y-12973876D02*
X14326657Y-12992924D01*
X14459991Y-12792924D02*
X14479038Y-12792924D01*
X14479038Y-12792924D02*
X14498086Y-12802448D01*
X14498086Y-12802448D02*
X14507610Y-12811971D01*
X14507610Y-12811971D02*
X14517133Y-12831019D01*
X14517133Y-12831019D02*
X14526657Y-12869114D01*
X14526657Y-12869114D02*
X14526657Y-12916733D01*
X14526657Y-12916733D02*
X14517133Y-12954828D01*
X14517133Y-12954828D02*
X14507610Y-12973876D01*
X14507610Y-12973876D02*
X14498086Y-12983400D01*
X14498086Y-12983400D02*
X14479038Y-12992924D01*
X14479038Y-12992924D02*
X14459991Y-12992924D01*
X14459991Y-12992924D02*
X14440943Y-12983400D01*
X14440943Y-12983400D02*
X14431419Y-12973876D01*
X14431419Y-12973876D02*
X14421895Y-12954828D01*
X14421895Y-12954828D02*
X14412372Y-12916733D01*
X14412372Y-12916733D02*
X14412372Y-12869114D01*
X14412372Y-12869114D02*
X14421895Y-12831019D01*
X14421895Y-12831019D02*
X14431419Y-12811971D01*
X14431419Y-12811971D02*
X14440943Y-12802448D01*
X14440943Y-12802448D02*
X14459991Y-12792924D01*
X14593324Y-12792924D02*
X14717133Y-12792924D01*
X14717133Y-12792924D02*
X14650467Y-12869114D01*
X14650467Y-12869114D02*
X14679038Y-12869114D01*
X14679038Y-12869114D02*
X14698086Y-12878638D01*
X14698086Y-12878638D02*
X14707610Y-12888162D01*
X14707610Y-12888162D02*
X14717133Y-12907209D01*
X14717133Y-12907209D02*
X14717133Y-12954828D01*
X14717133Y-12954828D02*
X14707610Y-12973876D01*
X14707610Y-12973876D02*
X14698086Y-12983400D01*
X14698086Y-12983400D02*
X14679038Y-12992924D01*
X14679038Y-12992924D02*
X14621895Y-12992924D01*
X14621895Y-12992924D02*
X14602848Y-12983400D01*
X14602848Y-12983400D02*
X14593324Y-12973876D01*
X14907610Y-12992924D02*
X14793324Y-12992924D01*
X14850467Y-12992924D02*
X14850467Y-12792924D01*
X14850467Y-12792924D02*
X14831419Y-12821495D01*
X14831419Y-12821495D02*
X14812372Y-12840543D01*
X14812372Y-12840543D02*
X14793324Y-12850067D01*
X15088562Y-12792924D02*
X14993324Y-12792924D01*
X14993324Y-12792924D02*
X14983800Y-12888162D01*
X14983800Y-12888162D02*
X14993324Y-12878638D01*
X14993324Y-12878638D02*
X15012372Y-12869114D01*
X15012372Y-12869114D02*
X15059991Y-12869114D01*
X15059991Y-12869114D02*
X15079038Y-12878638D01*
X15079038Y-12878638D02*
X15088562Y-12888162D01*
X15088562Y-12888162D02*
X15098086Y-12907209D01*
X15098086Y-12907209D02*
X15098086Y-12954828D01*
X15098086Y-12954828D02*
X15088562Y-12973876D01*
X15088562Y-12973876D02*
X15079038Y-12983400D01*
X15079038Y-12983400D02*
X15059991Y-12992924D01*
X15059991Y-12992924D02*
X15012372Y-12992924D01*
X15012372Y-12992924D02*
X14993324Y-12983400D01*
X14993324Y-12983400D02*
X14983800Y-12973876D01*
X15174276Y-12792924D02*
X15174276Y-12831019D01*
X15250467Y-12792924D02*
X15250467Y-12831019D01*
X15545705Y-13069114D02*
X15536181Y-13059590D01*
X15536181Y-13059590D02*
X15517134Y-13031019D01*
X15517134Y-13031019D02*
X15507610Y-13011971D01*
X15507610Y-13011971D02*
X15498086Y-12983400D01*
X15498086Y-12983400D02*
X15488562Y-12935781D01*
X15488562Y-12935781D02*
X15488562Y-12897686D01*
X15488562Y-12897686D02*
X15498086Y-12850067D01*
X15498086Y-12850067D02*
X15507610Y-12821495D01*
X15507610Y-12821495D02*
X15517134Y-12802448D01*
X15517134Y-12802448D02*
X15536181Y-12773876D01*
X15536181Y-12773876D02*
X15545705Y-12764352D01*
X15612372Y-12811971D02*
X15621895Y-12802448D01*
X15621895Y-12802448D02*
X15640943Y-12792924D01*
X15640943Y-12792924D02*
X15688562Y-12792924D01*
X15688562Y-12792924D02*
X15707610Y-12802448D01*
X15707610Y-12802448D02*
X15717134Y-12811971D01*
X15717134Y-12811971D02*
X15726657Y-12831019D01*
X15726657Y-12831019D02*
X15726657Y-12850067D01*
X15726657Y-12850067D02*
X15717134Y-12878638D01*
X15717134Y-12878638D02*
X15602848Y-12992924D01*
X15602848Y-12992924D02*
X15726657Y-12992924D01*
X15964753Y-12992924D02*
X15964753Y-12792924D01*
X16050467Y-12992924D02*
X16050467Y-12888162D01*
X16050467Y-12888162D02*
X16040943Y-12869114D01*
X16040943Y-12869114D02*
X16021896Y-12859590D01*
X16021896Y-12859590D02*
X15993324Y-12859590D01*
X15993324Y-12859590D02*
X15974276Y-12869114D01*
X15974276Y-12869114D02*
X15964753Y-12878638D01*
X16174276Y-12992924D02*
X16155229Y-12983400D01*
X16155229Y-12983400D02*
X16145705Y-12973876D01*
X16145705Y-12973876D02*
X16136181Y-12954828D01*
X16136181Y-12954828D02*
X16136181Y-12897686D01*
X16136181Y-12897686D02*
X16145705Y-12878638D01*
X16145705Y-12878638D02*
X16155229Y-12869114D01*
X16155229Y-12869114D02*
X16174276Y-12859590D01*
X16174276Y-12859590D02*
X16202848Y-12859590D01*
X16202848Y-12859590D02*
X16221896Y-12869114D01*
X16221896Y-12869114D02*
X16231419Y-12878638D01*
X16231419Y-12878638D02*
X16240943Y-12897686D01*
X16240943Y-12897686D02*
X16240943Y-12954828D01*
X16240943Y-12954828D02*
X16231419Y-12973876D01*
X16231419Y-12973876D02*
X16221896Y-12983400D01*
X16221896Y-12983400D02*
X16202848Y-12992924D01*
X16202848Y-12992924D02*
X16174276Y-12992924D01*
X16355229Y-12992924D02*
X16336181Y-12983400D01*
X16336181Y-12983400D02*
X16326657Y-12964352D01*
X16326657Y-12964352D02*
X16326657Y-12792924D01*
X16507610Y-12983400D02*
X16488562Y-12992924D01*
X16488562Y-12992924D02*
X16450467Y-12992924D01*
X16450467Y-12992924D02*
X16431419Y-12983400D01*
X16431419Y-12983400D02*
X16421896Y-12964352D01*
X16421896Y-12964352D02*
X16421896Y-12888162D01*
X16421896Y-12888162D02*
X16431419Y-12869114D01*
X16431419Y-12869114D02*
X16450467Y-12859590D01*
X16450467Y-12859590D02*
X16488562Y-12859590D01*
X16488562Y-12859590D02*
X16507610Y-12869114D01*
X16507610Y-12869114D02*
X16517134Y-12888162D01*
X16517134Y-12888162D02*
X16517134Y-12907209D01*
X16517134Y-12907209D02*
X16421896Y-12926257D01*
X16593324Y-12983400D02*
X16612372Y-12992924D01*
X16612372Y-12992924D02*
X16650467Y-12992924D01*
X16650467Y-12992924D02*
X16669515Y-12983400D01*
X16669515Y-12983400D02*
X16679038Y-12964352D01*
X16679038Y-12964352D02*
X16679038Y-12954828D01*
X16679038Y-12954828D02*
X16669515Y-12935781D01*
X16669515Y-12935781D02*
X16650467Y-12926257D01*
X16650467Y-12926257D02*
X16621896Y-12926257D01*
X16621896Y-12926257D02*
X16602848Y-12916733D01*
X16602848Y-12916733D02*
X16593324Y-12897686D01*
X16593324Y-12897686D02*
X16593324Y-12888162D01*
X16593324Y-12888162D02*
X16602848Y-12869114D01*
X16602848Y-12869114D02*
X16621896Y-12859590D01*
X16621896Y-12859590D02*
X16650467Y-12859590D01*
X16650467Y-12859590D02*
X16669515Y-12869114D01*
X16745705Y-13069114D02*
X16755229Y-13059590D01*
X16755229Y-13059590D02*
X16774277Y-13031019D01*
X16774277Y-13031019D02*
X16783800Y-13011971D01*
X16783800Y-13011971D02*
X16793324Y-12983400D01*
X16793324Y-12983400D02*
X16802848Y-12935781D01*
X16802848Y-12935781D02*
X16802848Y-12897686D01*
X16802848Y-12897686D02*
X16793324Y-12850067D01*
X16793324Y-12850067D02*
X16783800Y-12821495D01*
X16783800Y-12821495D02*
X16774277Y-12802448D01*
X16774277Y-12802448D02*
X16755229Y-12773876D01*
X16755229Y-12773876D02*
X16745705Y-12764352D01*
D16*
X11918800Y-13229400D02*
X11983800Y-13164400D01*
X11918800Y-13099400D01*
X11853800Y-13164400D01*
X11918800Y-13229400D01*
D11*
X12336181Y-13256924D02*
X12221895Y-13256924D01*
X12279038Y-13256924D02*
X12279038Y-13056924D01*
X12279038Y-13056924D02*
X12259990Y-13085495D01*
X12259990Y-13085495D02*
X12240943Y-13104543D01*
X12240943Y-13104543D02*
X12221895Y-13114067D01*
X12421895Y-13237876D02*
X12431419Y-13247400D01*
X12431419Y-13247400D02*
X12421895Y-13256924D01*
X12421895Y-13256924D02*
X12412371Y-13247400D01*
X12412371Y-13247400D02*
X12421895Y-13237876D01*
X12421895Y-13237876D02*
X12421895Y-13256924D01*
X12498086Y-13056924D02*
X12621895Y-13056924D01*
X12621895Y-13056924D02*
X12555228Y-13133114D01*
X12555228Y-13133114D02*
X12583800Y-13133114D01*
X12583800Y-13133114D02*
X12602848Y-13142638D01*
X12602848Y-13142638D02*
X12612371Y-13152162D01*
X12612371Y-13152162D02*
X12621895Y-13171209D01*
X12621895Y-13171209D02*
X12621895Y-13218828D01*
X12621895Y-13218828D02*
X12612371Y-13237876D01*
X12612371Y-13237876D02*
X12602848Y-13247400D01*
X12602848Y-13247400D02*
X12583800Y-13256924D01*
X12583800Y-13256924D02*
X12526657Y-13256924D01*
X12526657Y-13256924D02*
X12507609Y-13247400D01*
X12507609Y-13247400D02*
X12498086Y-13237876D01*
X12745705Y-13056924D02*
X12764752Y-13056924D01*
X12764752Y-13056924D02*
X12783800Y-13066448D01*
X12783800Y-13066448D02*
X12793324Y-13075971D01*
X12793324Y-13075971D02*
X12802848Y-13095019D01*
X12802848Y-13095019D02*
X12812371Y-13133114D01*
X12812371Y-13133114D02*
X12812371Y-13180733D01*
X12812371Y-13180733D02*
X12802848Y-13218828D01*
X12802848Y-13218828D02*
X12793324Y-13237876D01*
X12793324Y-13237876D02*
X12783800Y-13247400D01*
X12783800Y-13247400D02*
X12764752Y-13256924D01*
X12764752Y-13256924D02*
X12745705Y-13256924D01*
X12745705Y-13256924D02*
X12726657Y-13247400D01*
X12726657Y-13247400D02*
X12717133Y-13237876D01*
X12717133Y-13237876D02*
X12707609Y-13218828D01*
X12707609Y-13218828D02*
X12698086Y-13180733D01*
X12698086Y-13180733D02*
X12698086Y-13133114D01*
X12698086Y-13133114D02*
X12707609Y-13095019D01*
X12707609Y-13095019D02*
X12717133Y-13075971D01*
X12717133Y-13075971D02*
X12726657Y-13066448D01*
X12726657Y-13066448D02*
X12745705Y-13056924D01*
X12936181Y-13056924D02*
X12955229Y-13056924D01*
X12955229Y-13056924D02*
X12974276Y-13066448D01*
X12974276Y-13066448D02*
X12983800Y-13075971D01*
X12983800Y-13075971D02*
X12993324Y-13095019D01*
X12993324Y-13095019D02*
X13002848Y-13133114D01*
X13002848Y-13133114D02*
X13002848Y-13180733D01*
X13002848Y-13180733D02*
X12993324Y-13218828D01*
X12993324Y-13218828D02*
X12983800Y-13237876D01*
X12983800Y-13237876D02*
X12974276Y-13247400D01*
X12974276Y-13247400D02*
X12955229Y-13256924D01*
X12955229Y-13256924D02*
X12936181Y-13256924D01*
X12936181Y-13256924D02*
X12917133Y-13247400D01*
X12917133Y-13247400D02*
X12907609Y-13237876D01*
X12907609Y-13237876D02*
X12898086Y-13218828D01*
X12898086Y-13218828D02*
X12888562Y-13180733D01*
X12888562Y-13180733D02*
X12888562Y-13133114D01*
X12888562Y-13133114D02*
X12898086Y-13095019D01*
X12898086Y-13095019D02*
X12907609Y-13075971D01*
X12907609Y-13075971D02*
X12917133Y-13066448D01*
X12917133Y-13066448D02*
X12936181Y-13056924D01*
X13088562Y-13256924D02*
X13088562Y-13123590D01*
X13088562Y-13142638D02*
X13098086Y-13133114D01*
X13098086Y-13133114D02*
X13117133Y-13123590D01*
X13117133Y-13123590D02*
X13145705Y-13123590D01*
X13145705Y-13123590D02*
X13164752Y-13133114D01*
X13164752Y-13133114D02*
X13174276Y-13152162D01*
X13174276Y-13152162D02*
X13174276Y-13256924D01*
X13174276Y-13152162D02*
X13183800Y-13133114D01*
X13183800Y-13133114D02*
X13202848Y-13123590D01*
X13202848Y-13123590D02*
X13231419Y-13123590D01*
X13231419Y-13123590D02*
X13250467Y-13133114D01*
X13250467Y-13133114D02*
X13259990Y-13152162D01*
X13259990Y-13152162D02*
X13259990Y-13256924D01*
X13355229Y-13256924D02*
X13355229Y-13123590D01*
X13355229Y-13142638D02*
X13364752Y-13133114D01*
X13364752Y-13133114D02*
X13383800Y-13123590D01*
X13383800Y-13123590D02*
X13412371Y-13123590D01*
X13412371Y-13123590D02*
X13431419Y-13133114D01*
X13431419Y-13133114D02*
X13440943Y-13152162D01*
X13440943Y-13152162D02*
X13440943Y-13256924D01*
X13440943Y-13152162D02*
X13450467Y-13133114D01*
X13450467Y-13133114D02*
X13469514Y-13123590D01*
X13469514Y-13123590D02*
X13498086Y-13123590D01*
X13498086Y-13123590D02*
X13517133Y-13133114D01*
X13517133Y-13133114D02*
X13526657Y-13152162D01*
X13526657Y-13152162D02*
X13526657Y-13256924D01*
X13917133Y-13047400D02*
X13745705Y-13304543D01*
X14174276Y-13056924D02*
X14193324Y-13056924D01*
X14193324Y-13056924D02*
X14212372Y-13066448D01*
X14212372Y-13066448D02*
X14221895Y-13075971D01*
X14221895Y-13075971D02*
X14231419Y-13095019D01*
X14231419Y-13095019D02*
X14240943Y-13133114D01*
X14240943Y-13133114D02*
X14240943Y-13180733D01*
X14240943Y-13180733D02*
X14231419Y-13218828D01*
X14231419Y-13218828D02*
X14221895Y-13237876D01*
X14221895Y-13237876D02*
X14212372Y-13247400D01*
X14212372Y-13247400D02*
X14193324Y-13256924D01*
X14193324Y-13256924D02*
X14174276Y-13256924D01*
X14174276Y-13256924D02*
X14155229Y-13247400D01*
X14155229Y-13247400D02*
X14145705Y-13237876D01*
X14145705Y-13237876D02*
X14136181Y-13218828D01*
X14136181Y-13218828D02*
X14126657Y-13180733D01*
X14126657Y-13180733D02*
X14126657Y-13133114D01*
X14126657Y-13133114D02*
X14136181Y-13095019D01*
X14136181Y-13095019D02*
X14145705Y-13075971D01*
X14145705Y-13075971D02*
X14155229Y-13066448D01*
X14155229Y-13066448D02*
X14174276Y-13056924D01*
X14326657Y-13237876D02*
X14336181Y-13247400D01*
X14336181Y-13247400D02*
X14326657Y-13256924D01*
X14326657Y-13256924D02*
X14317133Y-13247400D01*
X14317133Y-13247400D02*
X14326657Y-13237876D01*
X14326657Y-13237876D02*
X14326657Y-13256924D01*
X14459991Y-13056924D02*
X14479038Y-13056924D01*
X14479038Y-13056924D02*
X14498086Y-13066448D01*
X14498086Y-13066448D02*
X14507610Y-13075971D01*
X14507610Y-13075971D02*
X14517133Y-13095019D01*
X14517133Y-13095019D02*
X14526657Y-13133114D01*
X14526657Y-13133114D02*
X14526657Y-13180733D01*
X14526657Y-13180733D02*
X14517133Y-13218828D01*
X14517133Y-13218828D02*
X14507610Y-13237876D01*
X14507610Y-13237876D02*
X14498086Y-13247400D01*
X14498086Y-13247400D02*
X14479038Y-13256924D01*
X14479038Y-13256924D02*
X14459991Y-13256924D01*
X14459991Y-13256924D02*
X14440943Y-13247400D01*
X14440943Y-13247400D02*
X14431419Y-13237876D01*
X14431419Y-13237876D02*
X14421895Y-13218828D01*
X14421895Y-13218828D02*
X14412372Y-13180733D01*
X14412372Y-13180733D02*
X14412372Y-13133114D01*
X14412372Y-13133114D02*
X14421895Y-13095019D01*
X14421895Y-13095019D02*
X14431419Y-13075971D01*
X14431419Y-13075971D02*
X14440943Y-13066448D01*
X14440943Y-13066448D02*
X14459991Y-13056924D01*
X14707610Y-13056924D02*
X14612372Y-13056924D01*
X14612372Y-13056924D02*
X14602848Y-13152162D01*
X14602848Y-13152162D02*
X14612372Y-13142638D01*
X14612372Y-13142638D02*
X14631419Y-13133114D01*
X14631419Y-13133114D02*
X14679038Y-13133114D01*
X14679038Y-13133114D02*
X14698086Y-13142638D01*
X14698086Y-13142638D02*
X14707610Y-13152162D01*
X14707610Y-13152162D02*
X14717133Y-13171209D01*
X14717133Y-13171209D02*
X14717133Y-13218828D01*
X14717133Y-13218828D02*
X14707610Y-13237876D01*
X14707610Y-13237876D02*
X14698086Y-13247400D01*
X14698086Y-13247400D02*
X14679038Y-13256924D01*
X14679038Y-13256924D02*
X14631419Y-13256924D01*
X14631419Y-13256924D02*
X14612372Y-13247400D01*
X14612372Y-13247400D02*
X14602848Y-13237876D01*
X14907610Y-13256924D02*
X14793324Y-13256924D01*
X14850467Y-13256924D02*
X14850467Y-13056924D01*
X14850467Y-13056924D02*
X14831419Y-13085495D01*
X14831419Y-13085495D02*
X14812372Y-13104543D01*
X14812372Y-13104543D02*
X14793324Y-13114067D01*
X14983800Y-13075971D02*
X14993324Y-13066448D01*
X14993324Y-13066448D02*
X15012372Y-13056924D01*
X15012372Y-13056924D02*
X15059991Y-13056924D01*
X15059991Y-13056924D02*
X15079038Y-13066448D01*
X15079038Y-13066448D02*
X15088562Y-13075971D01*
X15088562Y-13075971D02*
X15098086Y-13095019D01*
X15098086Y-13095019D02*
X15098086Y-13114067D01*
X15098086Y-13114067D02*
X15088562Y-13142638D01*
X15088562Y-13142638D02*
X14974276Y-13256924D01*
X14974276Y-13256924D02*
X15098086Y-13256924D01*
X15174276Y-13056924D02*
X15174276Y-13095019D01*
X15250467Y-13056924D02*
X15250467Y-13095019D01*
X15545705Y-13333114D02*
X15536181Y-13323590D01*
X15536181Y-13323590D02*
X15517134Y-13295019D01*
X15517134Y-13295019D02*
X15507610Y-13275971D01*
X15507610Y-13275971D02*
X15498086Y-13247400D01*
X15498086Y-13247400D02*
X15488562Y-13199781D01*
X15488562Y-13199781D02*
X15488562Y-13161686D01*
X15488562Y-13161686D02*
X15498086Y-13114067D01*
X15498086Y-13114067D02*
X15507610Y-13085495D01*
X15507610Y-13085495D02*
X15517134Y-13066448D01*
X15517134Y-13066448D02*
X15536181Y-13037876D01*
X15536181Y-13037876D02*
X15545705Y-13028352D01*
X15650467Y-13142638D02*
X15631419Y-13133114D01*
X15631419Y-13133114D02*
X15621895Y-13123590D01*
X15621895Y-13123590D02*
X15612372Y-13104543D01*
X15612372Y-13104543D02*
X15612372Y-13095019D01*
X15612372Y-13095019D02*
X15621895Y-13075971D01*
X15621895Y-13075971D02*
X15631419Y-13066448D01*
X15631419Y-13066448D02*
X15650467Y-13056924D01*
X15650467Y-13056924D02*
X15688562Y-13056924D01*
X15688562Y-13056924D02*
X15707610Y-13066448D01*
X15707610Y-13066448D02*
X15717134Y-13075971D01*
X15717134Y-13075971D02*
X15726657Y-13095019D01*
X15726657Y-13095019D02*
X15726657Y-13104543D01*
X15726657Y-13104543D02*
X15717134Y-13123590D01*
X15717134Y-13123590D02*
X15707610Y-13133114D01*
X15707610Y-13133114D02*
X15688562Y-13142638D01*
X15688562Y-13142638D02*
X15650467Y-13142638D01*
X15650467Y-13142638D02*
X15631419Y-13152162D01*
X15631419Y-13152162D02*
X15621895Y-13161686D01*
X15621895Y-13161686D02*
X15612372Y-13180733D01*
X15612372Y-13180733D02*
X15612372Y-13218828D01*
X15612372Y-13218828D02*
X15621895Y-13237876D01*
X15621895Y-13237876D02*
X15631419Y-13247400D01*
X15631419Y-13247400D02*
X15650467Y-13256924D01*
X15650467Y-13256924D02*
X15688562Y-13256924D01*
X15688562Y-13256924D02*
X15707610Y-13247400D01*
X15707610Y-13247400D02*
X15717134Y-13237876D01*
X15717134Y-13237876D02*
X15726657Y-13218828D01*
X15726657Y-13218828D02*
X15726657Y-13180733D01*
X15726657Y-13180733D02*
X15717134Y-13161686D01*
X15717134Y-13161686D02*
X15707610Y-13152162D01*
X15707610Y-13152162D02*
X15688562Y-13142638D01*
X15964753Y-13256924D02*
X15964753Y-13056924D01*
X16050467Y-13256924D02*
X16050467Y-13152162D01*
X16050467Y-13152162D02*
X16040943Y-13133114D01*
X16040943Y-13133114D02*
X16021896Y-13123590D01*
X16021896Y-13123590D02*
X15993324Y-13123590D01*
X15993324Y-13123590D02*
X15974276Y-13133114D01*
X15974276Y-13133114D02*
X15964753Y-13142638D01*
X16174276Y-13256924D02*
X16155229Y-13247400D01*
X16155229Y-13247400D02*
X16145705Y-13237876D01*
X16145705Y-13237876D02*
X16136181Y-13218828D01*
X16136181Y-13218828D02*
X16136181Y-13161686D01*
X16136181Y-13161686D02*
X16145705Y-13142638D01*
X16145705Y-13142638D02*
X16155229Y-13133114D01*
X16155229Y-13133114D02*
X16174276Y-13123590D01*
X16174276Y-13123590D02*
X16202848Y-13123590D01*
X16202848Y-13123590D02*
X16221896Y-13133114D01*
X16221896Y-13133114D02*
X16231419Y-13142638D01*
X16231419Y-13142638D02*
X16240943Y-13161686D01*
X16240943Y-13161686D02*
X16240943Y-13218828D01*
X16240943Y-13218828D02*
X16231419Y-13237876D01*
X16231419Y-13237876D02*
X16221896Y-13247400D01*
X16221896Y-13247400D02*
X16202848Y-13256924D01*
X16202848Y-13256924D02*
X16174276Y-13256924D01*
X16355229Y-13256924D02*
X16336181Y-13247400D01*
X16336181Y-13247400D02*
X16326657Y-13228352D01*
X16326657Y-13228352D02*
X16326657Y-13056924D01*
X16507610Y-13247400D02*
X16488562Y-13256924D01*
X16488562Y-13256924D02*
X16450467Y-13256924D01*
X16450467Y-13256924D02*
X16431419Y-13247400D01*
X16431419Y-13247400D02*
X16421896Y-13228352D01*
X16421896Y-13228352D02*
X16421896Y-13152162D01*
X16421896Y-13152162D02*
X16431419Y-13133114D01*
X16431419Y-13133114D02*
X16450467Y-13123590D01*
X16450467Y-13123590D02*
X16488562Y-13123590D01*
X16488562Y-13123590D02*
X16507610Y-13133114D01*
X16507610Y-13133114D02*
X16517134Y-13152162D01*
X16517134Y-13152162D02*
X16517134Y-13171209D01*
X16517134Y-13171209D02*
X16421896Y-13190257D01*
X16593324Y-13247400D02*
X16612372Y-13256924D01*
X16612372Y-13256924D02*
X16650467Y-13256924D01*
X16650467Y-13256924D02*
X16669515Y-13247400D01*
X16669515Y-13247400D02*
X16679038Y-13228352D01*
X16679038Y-13228352D02*
X16679038Y-13218828D01*
X16679038Y-13218828D02*
X16669515Y-13199781D01*
X16669515Y-13199781D02*
X16650467Y-13190257D01*
X16650467Y-13190257D02*
X16621896Y-13190257D01*
X16621896Y-13190257D02*
X16602848Y-13180733D01*
X16602848Y-13180733D02*
X16593324Y-13161686D01*
X16593324Y-13161686D02*
X16593324Y-13152162D01*
X16593324Y-13152162D02*
X16602848Y-13133114D01*
X16602848Y-13133114D02*
X16621896Y-13123590D01*
X16621896Y-13123590D02*
X16650467Y-13123590D01*
X16650467Y-13123590D02*
X16669515Y-13133114D01*
X16745705Y-13333114D02*
X16755229Y-13323590D01*
X16755229Y-13323590D02*
X16774277Y-13295019D01*
X16774277Y-13295019D02*
X16783800Y-13275971D01*
X16783800Y-13275971D02*
X16793324Y-13247400D01*
X16793324Y-13247400D02*
X16802848Y-13199781D01*
X16802848Y-13199781D02*
X16802848Y-13161686D01*
X16802848Y-13161686D02*
X16793324Y-13114067D01*
X16793324Y-13114067D02*
X16783800Y-13085495D01*
X16783800Y-13085495D02*
X16774277Y-13066448D01*
X16774277Y-13066448D02*
X16755229Y-13037876D01*
X16755229Y-13037876D02*
X16745705Y-13028352D01*
X11783800Y-13328400D02*
X11983800Y-13528400D01*
X11983800Y-13328400D02*
X11783800Y-13528400D01*
X11983800Y-13428400D02*
G75*
G03*
X11983800Y-13428400I-100000J0D01*
G01*
X12212371Y-13320924D02*
X12336181Y-13320924D01*
X12336181Y-13320924D02*
X12269514Y-13397114D01*
X12269514Y-13397114D02*
X12298086Y-13397114D01*
X12298086Y-13397114D02*
X12317133Y-13406638D01*
X12317133Y-13406638D02*
X12326657Y-13416162D01*
X12326657Y-13416162D02*
X12336181Y-13435209D01*
X12336181Y-13435209D02*
X12336181Y-13482828D01*
X12336181Y-13482828D02*
X12326657Y-13501876D01*
X12326657Y-13501876D02*
X12317133Y-13511400D01*
X12317133Y-13511400D02*
X12298086Y-13520924D01*
X12298086Y-13520924D02*
X12240943Y-13520924D01*
X12240943Y-13520924D02*
X12221895Y-13511400D01*
X12221895Y-13511400D02*
X12212371Y-13501876D01*
X12421895Y-13501876D02*
X12431419Y-13511400D01*
X12431419Y-13511400D02*
X12421895Y-13520924D01*
X12421895Y-13520924D02*
X12412371Y-13511400D01*
X12412371Y-13511400D02*
X12421895Y-13501876D01*
X12421895Y-13501876D02*
X12421895Y-13520924D01*
X12507609Y-13339971D02*
X12517133Y-13330448D01*
X12517133Y-13330448D02*
X12536181Y-13320924D01*
X12536181Y-13320924D02*
X12583800Y-13320924D01*
X12583800Y-13320924D02*
X12602848Y-13330448D01*
X12602848Y-13330448D02*
X12612371Y-13339971D01*
X12612371Y-13339971D02*
X12621895Y-13359019D01*
X12621895Y-13359019D02*
X12621895Y-13378067D01*
X12621895Y-13378067D02*
X12612371Y-13406638D01*
X12612371Y-13406638D02*
X12498086Y-13520924D01*
X12498086Y-13520924D02*
X12621895Y-13520924D01*
X12745705Y-13320924D02*
X12764752Y-13320924D01*
X12764752Y-13320924D02*
X12783800Y-13330448D01*
X12783800Y-13330448D02*
X12793324Y-13339971D01*
X12793324Y-13339971D02*
X12802848Y-13359019D01*
X12802848Y-13359019D02*
X12812371Y-13397114D01*
X12812371Y-13397114D02*
X12812371Y-13444733D01*
X12812371Y-13444733D02*
X12802848Y-13482828D01*
X12802848Y-13482828D02*
X12793324Y-13501876D01*
X12793324Y-13501876D02*
X12783800Y-13511400D01*
X12783800Y-13511400D02*
X12764752Y-13520924D01*
X12764752Y-13520924D02*
X12745705Y-13520924D01*
X12745705Y-13520924D02*
X12726657Y-13511400D01*
X12726657Y-13511400D02*
X12717133Y-13501876D01*
X12717133Y-13501876D02*
X12707609Y-13482828D01*
X12707609Y-13482828D02*
X12698086Y-13444733D01*
X12698086Y-13444733D02*
X12698086Y-13397114D01*
X12698086Y-13397114D02*
X12707609Y-13359019D01*
X12707609Y-13359019D02*
X12717133Y-13339971D01*
X12717133Y-13339971D02*
X12726657Y-13330448D01*
X12726657Y-13330448D02*
X12745705Y-13320924D01*
X12936181Y-13320924D02*
X12955229Y-13320924D01*
X12955229Y-13320924D02*
X12974276Y-13330448D01*
X12974276Y-13330448D02*
X12983800Y-13339971D01*
X12983800Y-13339971D02*
X12993324Y-13359019D01*
X12993324Y-13359019D02*
X13002848Y-13397114D01*
X13002848Y-13397114D02*
X13002848Y-13444733D01*
X13002848Y-13444733D02*
X12993324Y-13482828D01*
X12993324Y-13482828D02*
X12983800Y-13501876D01*
X12983800Y-13501876D02*
X12974276Y-13511400D01*
X12974276Y-13511400D02*
X12955229Y-13520924D01*
X12955229Y-13520924D02*
X12936181Y-13520924D01*
X12936181Y-13520924D02*
X12917133Y-13511400D01*
X12917133Y-13511400D02*
X12907609Y-13501876D01*
X12907609Y-13501876D02*
X12898086Y-13482828D01*
X12898086Y-13482828D02*
X12888562Y-13444733D01*
X12888562Y-13444733D02*
X12888562Y-13397114D01*
X12888562Y-13397114D02*
X12898086Y-13359019D01*
X12898086Y-13359019D02*
X12907609Y-13339971D01*
X12907609Y-13339971D02*
X12917133Y-13330448D01*
X12917133Y-13330448D02*
X12936181Y-13320924D01*
X13088562Y-13520924D02*
X13088562Y-13387590D01*
X13088562Y-13406638D02*
X13098086Y-13397114D01*
X13098086Y-13397114D02*
X13117133Y-13387590D01*
X13117133Y-13387590D02*
X13145705Y-13387590D01*
X13145705Y-13387590D02*
X13164752Y-13397114D01*
X13164752Y-13397114D02*
X13174276Y-13416162D01*
X13174276Y-13416162D02*
X13174276Y-13520924D01*
X13174276Y-13416162D02*
X13183800Y-13397114D01*
X13183800Y-13397114D02*
X13202848Y-13387590D01*
X13202848Y-13387590D02*
X13231419Y-13387590D01*
X13231419Y-13387590D02*
X13250467Y-13397114D01*
X13250467Y-13397114D02*
X13259990Y-13416162D01*
X13259990Y-13416162D02*
X13259990Y-13520924D01*
X13355229Y-13520924D02*
X13355229Y-13387590D01*
X13355229Y-13406638D02*
X13364752Y-13397114D01*
X13364752Y-13397114D02*
X13383800Y-13387590D01*
X13383800Y-13387590D02*
X13412371Y-13387590D01*
X13412371Y-13387590D02*
X13431419Y-13397114D01*
X13431419Y-13397114D02*
X13440943Y-13416162D01*
X13440943Y-13416162D02*
X13440943Y-13520924D01*
X13440943Y-13416162D02*
X13450467Y-13397114D01*
X13450467Y-13397114D02*
X13469514Y-13387590D01*
X13469514Y-13387590D02*
X13498086Y-13387590D01*
X13498086Y-13387590D02*
X13517133Y-13397114D01*
X13517133Y-13397114D02*
X13526657Y-13416162D01*
X13526657Y-13416162D02*
X13526657Y-13520924D01*
X13917133Y-13311400D02*
X13745705Y-13568543D01*
X14174276Y-13320924D02*
X14193324Y-13320924D01*
X14193324Y-13320924D02*
X14212372Y-13330448D01*
X14212372Y-13330448D02*
X14221895Y-13339971D01*
X14221895Y-13339971D02*
X14231419Y-13359019D01*
X14231419Y-13359019D02*
X14240943Y-13397114D01*
X14240943Y-13397114D02*
X14240943Y-13444733D01*
X14240943Y-13444733D02*
X14231419Y-13482828D01*
X14231419Y-13482828D02*
X14221895Y-13501876D01*
X14221895Y-13501876D02*
X14212372Y-13511400D01*
X14212372Y-13511400D02*
X14193324Y-13520924D01*
X14193324Y-13520924D02*
X14174276Y-13520924D01*
X14174276Y-13520924D02*
X14155229Y-13511400D01*
X14155229Y-13511400D02*
X14145705Y-13501876D01*
X14145705Y-13501876D02*
X14136181Y-13482828D01*
X14136181Y-13482828D02*
X14126657Y-13444733D01*
X14126657Y-13444733D02*
X14126657Y-13397114D01*
X14126657Y-13397114D02*
X14136181Y-13359019D01*
X14136181Y-13359019D02*
X14145705Y-13339971D01*
X14145705Y-13339971D02*
X14155229Y-13330448D01*
X14155229Y-13330448D02*
X14174276Y-13320924D01*
X14326657Y-13501876D02*
X14336181Y-13511400D01*
X14336181Y-13511400D02*
X14326657Y-13520924D01*
X14326657Y-13520924D02*
X14317133Y-13511400D01*
X14317133Y-13511400D02*
X14326657Y-13501876D01*
X14326657Y-13501876D02*
X14326657Y-13520924D01*
X14526657Y-13520924D02*
X14412372Y-13520924D01*
X14469514Y-13520924D02*
X14469514Y-13320924D01*
X14469514Y-13320924D02*
X14450467Y-13349495D01*
X14450467Y-13349495D02*
X14431419Y-13368543D01*
X14431419Y-13368543D02*
X14412372Y-13378067D01*
X14602848Y-13339971D02*
X14612372Y-13330448D01*
X14612372Y-13330448D02*
X14631419Y-13320924D01*
X14631419Y-13320924D02*
X14679038Y-13320924D01*
X14679038Y-13320924D02*
X14698086Y-13330448D01*
X14698086Y-13330448D02*
X14707610Y-13339971D01*
X14707610Y-13339971D02*
X14717133Y-13359019D01*
X14717133Y-13359019D02*
X14717133Y-13378067D01*
X14717133Y-13378067D02*
X14707610Y-13406638D01*
X14707610Y-13406638D02*
X14593324Y-13520924D01*
X14593324Y-13520924D02*
X14717133Y-13520924D01*
X14888562Y-13320924D02*
X14850467Y-13320924D01*
X14850467Y-13320924D02*
X14831419Y-13330448D01*
X14831419Y-13330448D02*
X14821895Y-13339971D01*
X14821895Y-13339971D02*
X14802848Y-13368543D01*
X14802848Y-13368543D02*
X14793324Y-13406638D01*
X14793324Y-13406638D02*
X14793324Y-13482828D01*
X14793324Y-13482828D02*
X14802848Y-13501876D01*
X14802848Y-13501876D02*
X14812372Y-13511400D01*
X14812372Y-13511400D02*
X14831419Y-13520924D01*
X14831419Y-13520924D02*
X14869514Y-13520924D01*
X14869514Y-13520924D02*
X14888562Y-13511400D01*
X14888562Y-13511400D02*
X14898086Y-13501876D01*
X14898086Y-13501876D02*
X14907610Y-13482828D01*
X14907610Y-13482828D02*
X14907610Y-13435209D01*
X14907610Y-13435209D02*
X14898086Y-13416162D01*
X14898086Y-13416162D02*
X14888562Y-13406638D01*
X14888562Y-13406638D02*
X14869514Y-13397114D01*
X14869514Y-13397114D02*
X14831419Y-13397114D01*
X14831419Y-13397114D02*
X14812372Y-13406638D01*
X14812372Y-13406638D02*
X14802848Y-13416162D01*
X14802848Y-13416162D02*
X14793324Y-13435209D01*
X15031419Y-13320924D02*
X15050467Y-13320924D01*
X15050467Y-13320924D02*
X15069514Y-13330448D01*
X15069514Y-13330448D02*
X15079038Y-13339971D01*
X15079038Y-13339971D02*
X15088562Y-13359019D01*
X15088562Y-13359019D02*
X15098086Y-13397114D01*
X15098086Y-13397114D02*
X15098086Y-13444733D01*
X15098086Y-13444733D02*
X15088562Y-13482828D01*
X15088562Y-13482828D02*
X15079038Y-13501876D01*
X15079038Y-13501876D02*
X15069514Y-13511400D01*
X15069514Y-13511400D02*
X15050467Y-13520924D01*
X15050467Y-13520924D02*
X15031419Y-13520924D01*
X15031419Y-13520924D02*
X15012372Y-13511400D01*
X15012372Y-13511400D02*
X15002848Y-13501876D01*
X15002848Y-13501876D02*
X14993324Y-13482828D01*
X14993324Y-13482828D02*
X14983800Y-13444733D01*
X14983800Y-13444733D02*
X14983800Y-13397114D01*
X14983800Y-13397114D02*
X14993324Y-13359019D01*
X14993324Y-13359019D02*
X15002848Y-13339971D01*
X15002848Y-13339971D02*
X15012372Y-13330448D01*
X15012372Y-13330448D02*
X15031419Y-13320924D01*
X15174276Y-13320924D02*
X15174276Y-13359019D01*
X15250467Y-13320924D02*
X15250467Y-13359019D01*
X15545705Y-13597114D02*
X15536181Y-13587590D01*
X15536181Y-13587590D02*
X15517134Y-13559019D01*
X15517134Y-13559019D02*
X15507610Y-13539971D01*
X15507610Y-13539971D02*
X15498086Y-13511400D01*
X15498086Y-13511400D02*
X15488562Y-13463781D01*
X15488562Y-13463781D02*
X15488562Y-13425686D01*
X15488562Y-13425686D02*
X15498086Y-13378067D01*
X15498086Y-13378067D02*
X15507610Y-13349495D01*
X15507610Y-13349495D02*
X15517134Y-13330448D01*
X15517134Y-13330448D02*
X15536181Y-13301876D01*
X15536181Y-13301876D02*
X15545705Y-13292352D01*
X15707610Y-13387590D02*
X15707610Y-13520924D01*
X15659991Y-13311400D02*
X15612372Y-13454257D01*
X15612372Y-13454257D02*
X15736181Y-13454257D01*
X15964753Y-13520924D02*
X15964753Y-13320924D01*
X16050467Y-13520924D02*
X16050467Y-13416162D01*
X16050467Y-13416162D02*
X16040943Y-13397114D01*
X16040943Y-13397114D02*
X16021896Y-13387590D01*
X16021896Y-13387590D02*
X15993324Y-13387590D01*
X15993324Y-13387590D02*
X15974276Y-13397114D01*
X15974276Y-13397114D02*
X15964753Y-13406638D01*
X16174276Y-13520924D02*
X16155229Y-13511400D01*
X16155229Y-13511400D02*
X16145705Y-13501876D01*
X16145705Y-13501876D02*
X16136181Y-13482828D01*
X16136181Y-13482828D02*
X16136181Y-13425686D01*
X16136181Y-13425686D02*
X16145705Y-13406638D01*
X16145705Y-13406638D02*
X16155229Y-13397114D01*
X16155229Y-13397114D02*
X16174276Y-13387590D01*
X16174276Y-13387590D02*
X16202848Y-13387590D01*
X16202848Y-13387590D02*
X16221896Y-13397114D01*
X16221896Y-13397114D02*
X16231419Y-13406638D01*
X16231419Y-13406638D02*
X16240943Y-13425686D01*
X16240943Y-13425686D02*
X16240943Y-13482828D01*
X16240943Y-13482828D02*
X16231419Y-13501876D01*
X16231419Y-13501876D02*
X16221896Y-13511400D01*
X16221896Y-13511400D02*
X16202848Y-13520924D01*
X16202848Y-13520924D02*
X16174276Y-13520924D01*
X16355229Y-13520924D02*
X16336181Y-13511400D01*
X16336181Y-13511400D02*
X16326657Y-13492352D01*
X16326657Y-13492352D02*
X16326657Y-13320924D01*
X16507610Y-13511400D02*
X16488562Y-13520924D01*
X16488562Y-13520924D02*
X16450467Y-13520924D01*
X16450467Y-13520924D02*
X16431419Y-13511400D01*
X16431419Y-13511400D02*
X16421896Y-13492352D01*
X16421896Y-13492352D02*
X16421896Y-13416162D01*
X16421896Y-13416162D02*
X16431419Y-13397114D01*
X16431419Y-13397114D02*
X16450467Y-13387590D01*
X16450467Y-13387590D02*
X16488562Y-13387590D01*
X16488562Y-13387590D02*
X16507610Y-13397114D01*
X16507610Y-13397114D02*
X16517134Y-13416162D01*
X16517134Y-13416162D02*
X16517134Y-13435209D01*
X16517134Y-13435209D02*
X16421896Y-13454257D01*
X16593324Y-13511400D02*
X16612372Y-13520924D01*
X16612372Y-13520924D02*
X16650467Y-13520924D01*
X16650467Y-13520924D02*
X16669515Y-13511400D01*
X16669515Y-13511400D02*
X16679038Y-13492352D01*
X16679038Y-13492352D02*
X16679038Y-13482828D01*
X16679038Y-13482828D02*
X16669515Y-13463781D01*
X16669515Y-13463781D02*
X16650467Y-13454257D01*
X16650467Y-13454257D02*
X16621896Y-13454257D01*
X16621896Y-13454257D02*
X16602848Y-13444733D01*
X16602848Y-13444733D02*
X16593324Y-13425686D01*
X16593324Y-13425686D02*
X16593324Y-13416162D01*
X16593324Y-13416162D02*
X16602848Y-13397114D01*
X16602848Y-13397114D02*
X16621896Y-13387590D01*
X16621896Y-13387590D02*
X16650467Y-13387590D01*
X16650467Y-13387590D02*
X16669515Y-13397114D01*
X16745705Y-13597114D02*
X16755229Y-13587590D01*
X16755229Y-13587590D02*
X16774277Y-13559019D01*
X16774277Y-13559019D02*
X16783800Y-13539971D01*
X16783800Y-13539971D02*
X16793324Y-13511400D01*
X16793324Y-13511400D02*
X16802848Y-13463781D01*
X16802848Y-13463781D02*
X16802848Y-13425686D01*
X16802848Y-13425686D02*
X16793324Y-13378067D01*
X16793324Y-13378067D02*
X16783800Y-13349495D01*
X16783800Y-13349495D02*
X16774277Y-13330448D01*
X16774277Y-13330448D02*
X16755229Y-13301876D01*
X16755229Y-13301876D02*
X16745705Y-13292352D01*
M02*
