%TF.GenerationSoftware,KiCad,Pcbnew,7.0.1*%
%TF.CreationDate,2025-08-08T09:31:10+07:00*%
%TF.ProjectId,Isolated-Serial-PCB,49736f6c-6174-4656-942d-53657269616c,rev?*%
%TF.SameCoordinates,Original*%
%TF.FileFunction,Drillmap*%
%TF.FilePolarity,Positive*%
%FSLAX45Y45*%
G04 Gerber Fmt 4.5, Leading zero omitted, Abs format (unit mm)*
G04 Created by KiCad (PCBNEW 7.0.1) date 2025-08-08 09:31:10*
%MOMM*%
%LPD*%
G01*
G04 APERTURE LIST*
%ADD10C,0.100000*%
%ADD11C,0.200000*%
G04 APERTURE END LIST*
D10*
X12369800Y-7653400D02*
X17195800Y-7653400D01*
X17195800Y-11463400D02*
X12369800Y-11463400D01*
X17576800Y-8034400D02*
G75*
G03*
X17195800Y-7653400I-381000J0D01*
G01*
X11988800Y-11082400D02*
X11988800Y-8034400D01*
X12369800Y-7653400D02*
G75*
G03*
X11988800Y-8034400I0J-381000D01*
G01*
X11988800Y-11082400D02*
G75*
G03*
X12369800Y-11463400I381000J0D01*
G01*
X17195800Y-11463400D02*
G75*
G03*
X17576800Y-11082400I0J381000D01*
G01*
X17576800Y-8034400D02*
X17576800Y-11082400D01*
D11*
X12231419Y-11780924D02*
X12231419Y-11580924D01*
X12231419Y-11580924D02*
X12279038Y-11580924D01*
X12279038Y-11580924D02*
X12307609Y-11590448D01*
X12307609Y-11590448D02*
X12326657Y-11609495D01*
X12326657Y-11609495D02*
X12336181Y-11628543D01*
X12336181Y-11628543D02*
X12345705Y-11666638D01*
X12345705Y-11666638D02*
X12345705Y-11695209D01*
X12345705Y-11695209D02*
X12336181Y-11733305D01*
X12336181Y-11733305D02*
X12326657Y-11752352D01*
X12326657Y-11752352D02*
X12307609Y-11771400D01*
X12307609Y-11771400D02*
X12279038Y-11780924D01*
X12279038Y-11780924D02*
X12231419Y-11780924D01*
X12431419Y-11780924D02*
X12431419Y-11647590D01*
X12431419Y-11685686D02*
X12440943Y-11666638D01*
X12440943Y-11666638D02*
X12450467Y-11657114D01*
X12450467Y-11657114D02*
X12469514Y-11647590D01*
X12469514Y-11647590D02*
X12488562Y-11647590D01*
X12555228Y-11780924D02*
X12555228Y-11647590D01*
X12555228Y-11580924D02*
X12545705Y-11590448D01*
X12545705Y-11590448D02*
X12555228Y-11599971D01*
X12555228Y-11599971D02*
X12564752Y-11590448D01*
X12564752Y-11590448D02*
X12555228Y-11580924D01*
X12555228Y-11580924D02*
X12555228Y-11599971D01*
X12679038Y-11780924D02*
X12659990Y-11771400D01*
X12659990Y-11771400D02*
X12650467Y-11752352D01*
X12650467Y-11752352D02*
X12650467Y-11580924D01*
X12783800Y-11780924D02*
X12764752Y-11771400D01*
X12764752Y-11771400D02*
X12755228Y-11752352D01*
X12755228Y-11752352D02*
X12755228Y-11580924D01*
X13012371Y-11780924D02*
X13012371Y-11580924D01*
X13012371Y-11580924D02*
X13079038Y-11723781D01*
X13079038Y-11723781D02*
X13145705Y-11580924D01*
X13145705Y-11580924D02*
X13145705Y-11780924D01*
X13326657Y-11780924D02*
X13326657Y-11676162D01*
X13326657Y-11676162D02*
X13317133Y-11657114D01*
X13317133Y-11657114D02*
X13298086Y-11647590D01*
X13298086Y-11647590D02*
X13259990Y-11647590D01*
X13259990Y-11647590D02*
X13240943Y-11657114D01*
X13326657Y-11771400D02*
X13307609Y-11780924D01*
X13307609Y-11780924D02*
X13259990Y-11780924D01*
X13259990Y-11780924D02*
X13240943Y-11771400D01*
X13240943Y-11771400D02*
X13231419Y-11752352D01*
X13231419Y-11752352D02*
X13231419Y-11733305D01*
X13231419Y-11733305D02*
X13240943Y-11714257D01*
X13240943Y-11714257D02*
X13259990Y-11704733D01*
X13259990Y-11704733D02*
X13307609Y-11704733D01*
X13307609Y-11704733D02*
X13326657Y-11695209D01*
X13421895Y-11647590D02*
X13421895Y-11847590D01*
X13421895Y-11657114D02*
X13440943Y-11647590D01*
X13440943Y-11647590D02*
X13479038Y-11647590D01*
X13479038Y-11647590D02*
X13498086Y-11657114D01*
X13498086Y-11657114D02*
X13507609Y-11666638D01*
X13507609Y-11666638D02*
X13517133Y-11685686D01*
X13517133Y-11685686D02*
X13517133Y-11742828D01*
X13517133Y-11742828D02*
X13507609Y-11761876D01*
X13507609Y-11761876D02*
X13498086Y-11771400D01*
X13498086Y-11771400D02*
X13479038Y-11780924D01*
X13479038Y-11780924D02*
X13440943Y-11780924D01*
X13440943Y-11780924D02*
X13421895Y-11771400D01*
X13602848Y-11761876D02*
X13612371Y-11771400D01*
X13612371Y-11771400D02*
X13602848Y-11780924D01*
X13602848Y-11780924D02*
X13593324Y-11771400D01*
X13593324Y-11771400D02*
X13602848Y-11761876D01*
X13602848Y-11761876D02*
X13602848Y-11780924D01*
X13602848Y-11657114D02*
X13612371Y-11666638D01*
X13612371Y-11666638D02*
X13602848Y-11676162D01*
X13602848Y-11676162D02*
X13593324Y-11666638D01*
X13593324Y-11666638D02*
X13602848Y-11657114D01*
X13602848Y-11657114D02*
X13602848Y-11676162D01*
M02*
