M48
; DRILL file {KiCad 7.0.1} date Fri Aug  8 09:31:11 2025
; FORMAT={-:-/ absolute / metric / decimal}
; #@! TF.CreationDate,2025-08-08T09:31:11+07:00
; #@! TF.GenerationSoftware,Kicad,Pcbnew,7.0.1
; #@! TF.FileFunction,Plated,1,2,PTH
FMAT,2
METRIC
; #@! TA.AperFunction,Plated,PTH,ViaDrill
T1C0.400
; #@! TA.AperFunction,Plated,PTH,ComponentDrill
T2C0.500
; #@! TA.AperFunction,Plated,PTH,ComponentDrill
T3C0.770
; #@! TA.AperFunction,Plated,PTH,ComponentDrill
T4C0.800
; #@! TA.AperFunction,Plated,PTH,ComponentDrill
T5C1.300
; #@! TA.AperFunction,Plated,PTH,ComponentDrill
T6C3.200
%
G90
G05
T1
X130.048Y-80.264
X130.048Y-81.28
X130.048Y-82.296
X131.064Y-80.264
X131.064Y-81.28
X131.064Y-82.296
X131.064Y-107.696
X131.064Y-108.712
X131.064Y-109.728
X132.08Y-80.264
X132.08Y-81.28
X132.08Y-82.296
X132.08Y-107.696
X132.08Y-108.712
X132.08Y-109.728
X133.096Y-107.696
X133.096Y-108.712
X133.096Y-109.728
X133.604Y-88.138
X135.128Y-92.964
X137.922Y-100.584
X151.892Y-80.264
X152.146Y-87.884
X158.242Y-85.852
X159.258Y-107.442
X159.258Y-108.458
X159.258Y-109.474
X160.274Y-109.473
X160.274Y-89.408
X160.274Y-107.442
X160.274Y-108.458
X160.782Y-80.01
X161.29Y-107.442
X161.29Y-108.458
X161.29Y-109.474
X164.846Y-80.264
X164.846Y-81.28
X164.846Y-82.296
X165.862Y-82.295
X165.862Y-80.264
X165.862Y-81.28
X165.862Y-88.138
X166.878Y-80.264
X166.878Y-81.28
X166.878Y-82.296
T2
X121.298Y-80.344
X121.298Y-110.824
X122.001Y-78.647
X122.001Y-82.041
X122.001Y-109.127
X122.001Y-112.521
X123.698Y-77.944
X123.698Y-82.744
X123.698Y-108.424
X123.698Y-113.224
X125.395Y-78.647
X125.395Y-82.041
X125.395Y-109.127
X125.395Y-112.521
X126.098Y-80.344
X126.098Y-110.824
X169.558Y-80.344
X169.558Y-110.824
X170.261Y-78.647
X170.261Y-82.041
X170.261Y-109.127
X170.261Y-112.521
X171.958Y-77.944
X171.958Y-82.744
X171.958Y-108.424
X171.958Y-113.224
X173.655Y-78.647
X173.655Y-82.041
X173.655Y-109.127
X173.655Y-112.521
X174.358Y-80.344
X174.358Y-110.824
T3
X144.018Y-82.884
X146.558Y-82.884
X149.098Y-82.884
X151.638Y-82.884
T4
X158.242Y-81.614
X158.242Y-91.774
T5
X126.238Y-87.964
X126.238Y-92.964
X126.238Y-97.964
X126.238Y-102.964
X169.418Y-88.124
X169.418Y-93.124
X169.418Y-98.124
X169.418Y-103.124
T6
X123.698Y-80.344
X123.698Y-110.824
X171.958Y-80.344
X171.958Y-110.824
T0
M30
